<?xml version="1.0" encoding="utf-8"?>
<!-- Generator: Adobe Illustrator 17.0.0, SVG Export Plug-In . SVG Version: 6.00 Build 0)  -->
<!DOCTYPE svg PUBLIC "-//W3C//DTD SVG 1.1//EN" "http://www.w3.org/Graphics/SVG/1.1/DTD/svg11.dtd">
<svg version="1.1" xmlns="http://www.w3.org/2000/svg" xmlns:xlink="http://www.w3.org/1999/xlink" x="0px" y="0px"
	 width="42.183px" height="51.155px" viewBox="0 0 42.183 51.155" enable-background="new 0 0 42.183 51.155" xml:space="preserve">
<g id="imgs">
</g>
<g id="content">
	<g>
		<g>
			<path fill="#292928" d="M21.574,12.973c-0.464,0-0.75-0.047-0.781-0.053l-0.499-0.086l-0.111-0.494
				c-0.033-0.147-0.781-3.66,2.297-7.717c3.448-4.544,8.196-4.619,8.396-4.62L31.522,0l0.106,0.637
				c0.03,0.18,0.692,4.433-2.73,8.545C26.049,12.604,22.827,12.973,21.574,12.973z M30.179,1.586
				c-1.317,0.193-4.215,0.954-6.491,3.954c-1.984,2.615-2.141,4.9-2.088,5.916c1.058-0.006,3.714-0.341,6.131-3.245
				C29.942,5.554,30.197,2.832,30.179,1.586z"/>
		</g>
		<g>
			<path fill="#292928" d="M13.808,51.155C7.613,51.155,0,38.323,0,27.884c0-10.267,6.546-15.807,12.706-15.807
				c2.325,0,4.334,0.774,5.949,1.396c1.075,0.414,2.004,0.771,2.682,0.771c0.51,0,1.348-0.338,2.317-0.729
				c1.652-0.666,3.914-1.578,6.527-1.578c7.339,0,10.264,5.138,10.385,5.356l0.379,0.686l-0.698,0.357
				c-0.201,0.104-4.955,2.636-4.955,8.728c0,6.913,6.141,9.37,6.203,9.395l0.688,0.266l-0.247,0.695
				c-0.198,0.558-4.932,13.661-11.703,13.661c-1.568,0-2.937-0.512-4.261-1.006c-1.305-0.488-2.539-0.948-3.949-0.948
				c-1.593,0-3.253,0.602-4.718,1.133C16.036,50.721,14.837,51.155,13.808,51.155z M12.706,13.595
				c-5.424,0-11.189,5.008-11.189,14.289c0,10.295,7.326,21.754,12.291,21.754c0.764,0,1.84-0.39,2.981-0.804
				c1.582-0.573,3.376-1.224,5.235-1.224c1.685,0,3.106,0.531,4.48,1.045c1.253,0.468,2.436,0.909,3.73,0.909
				c4.471,0,8.542-8.142,10.036-12.013c-1.789-0.938-6.493-4.022-6.493-10.486c0-5.594,3.498-8.583,5.056-9.638
				c-0.945-1.245-3.593-3.972-8.65-3.972c-2.319,0-4.337,0.813-5.959,1.468c-1.163,0.469-2.081,0.839-2.885,0.839
				c-0.96,0-2.011-0.405-3.228-0.874C16.535,14.282,14.75,13.595,12.706,13.595z"/>
		</g>
	</g>
</g>
<g id="grid" display="none">
</g>
</svg>
