<?xml version="1.0" encoding="utf-8"?>
<!-- Generator: Adobe Illustrator 17.0.0, SVG Export Plug-In . SVG Version: 6.00 Build 0)  -->
<!DOCTYPE svg PUBLIC "-//W3C//DTD SVG 1.1//EN" "http://www.w3.org/Graphics/SVG/1.1/DTD/svg11.dtd">
<svg version="1.1" xmlns="http://www.w3.org/2000/svg" xmlns:xlink="http://www.w3.org/1999/xlink" x="0px" y="0px" width="45.2px"
	 height="50px" viewBox="0 0 45.2 50" enable-background="new 0 0 45.2 50" xml:space="preserve">
<g id="imgs">
</g>
<g id="content">
	<g>
		<g>
			<g>
				<path fill="#2C2C2B" d="M32.876,50H20.829c-2.932,0-5.773-1.048-8.001-2.95l0.906-1.06c1.975,1.687,4.494,2.615,7.095,2.615
					h12.047c6.027,0,10.93-4.903,10.93-10.929V20.674H9.9v5.849H8.505V19.28H45.2v18.397C45.2,44.472,39.672,50,32.876,50z"/>
			</g>
			<g>
				<path fill="#2C2C2B" d="M40.98,20.2h-1.394v-6.207c0-6.947-5.652-12.598-12.598-12.598h-0.269
					c-6.947,0-12.598,5.652-12.598,12.598V20.2h-1.394v-6.207C12.726,6.277,19.003,0,26.719,0h0.269
					C34.703,0,40.98,6.277,40.98,13.993V20.2z"/>
			</g>
			<g>
				<path fill="#2C2C2B" d="M36.75,17.87h-1.394v-3.648c0-4.541-3.694-8.236-8.236-8.236h-0.18c-4.541,0-8.236,3.694-8.236,8.236
					v3.648h-1.394v-3.648c0-5.31,4.32-9.63,9.63-9.63h0.18c5.31,0,9.63,4.32,9.63,9.63V17.87z"/>
			</g>
			<g>
				<path fill="#2C2C2B" d="M31.105,44.085h-8.504l0.802-3.5l1.359,0.311l-0.411,1.794h5.004l-1.141-4.982l0.363-0.272
					c0.743-0.556,1.17-1.399,1.17-2.309c0-1.596-1.298-2.894-2.894-2.894c-0.634,0-1.236,0.201-1.741,0.582l-0.84-1.113
					c0.749-0.565,1.641-0.863,2.58-0.863c2.365,0,4.289,1.924,4.289,4.289c0,1.201-0.495,2.318-1.372,3.129L31.105,44.085z"/>
			</g>
			<g>
				<rect x="28.111" y="23.732" fill="#2C2C2B" width="16.393" height="1.394"/>
			</g>
			<g>
				<path fill="#2C2C2B" d="M28.111,25.127h-0.414v-1.394h0.414V25.127z M25.837,25.127h-1.859v-1.394h1.859V25.127z M22.119,25.127
					H20.26v-1.394h1.859V25.127z M18.401,25.127h-1.859v-1.394h1.859V25.127z"/>
			</g>
		</g>
		<g>
			<g>
				<path fill="#2C2C2B" d="M13.205,44.045H7.179C3.22,44.045,0,40.824,0,36.866v-1.749c0-3.959,3.22-7.179,7.179-7.179h6.026
					c1.39,0,2.521,1.131,2.521,2.521v11.066C15.725,42.914,14.595,44.045,13.205,44.045z M7.179,29.332
					c-3.19,0-5.785,2.595-5.785,5.785v1.749c0,3.19,2.595,5.785,5.785,5.785h6.026c0.621,0,1.126-0.505,1.126-1.126V30.458
					c0-0.621-0.505-1.126-1.126-1.126H7.179z"/>
			</g>
			<g>
				<polygon fill="#2C2C2B" points="19.642,41.951 15.028,41.951 15.028,40.556 18.248,40.556 18.248,37.708 28.994,37.709 
					28.994,39.103 19.642,39.103 				"/>
			</g>
			<g>
				<polygon fill="#2C2C2B" points="30.414,35.361 18.152,35.361 18.152,32.771 15.028,32.771 15.028,31.377 19.547,31.377 
					19.547,33.967 30.414,33.967 				"/>
			</g>
			<g>
				<path fill="#2C2C2B" d="M6.328,39.395H4.557v-1.394h1.771c1.006,0,1.825-0.819,1.825-1.825v-0.051
					c0-1.006-0.819-1.825-1.825-1.825H4.557v-1.394h1.771c1.775,0,3.22,1.444,3.22,3.22v0.051
					C9.547,37.951,8.103,39.395,6.328,39.395z"/>
			</g>
		</g>
	</g>
</g>
<g id="grid" display="none">
</g>
</svg>
