<?xml version="1.0" encoding="utf-8"?>
<!-- Generator: Adobe Illustrator 17.0.0, SVG Export Plug-In . SVG Version: 6.00 Build 0)  -->
<!DOCTYPE svg PUBLIC "-//W3C//DTD SVG 1.1//EN" "http://www.w3.org/Graphics/SVG/1.1/DTD/svg11.dtd">
<svg version="1.1" xmlns="http://www.w3.org/2000/svg" xmlns:xlink="http://www.w3.org/1999/xlink" x="0px" y="0px" width="600px"
	 height="155.15px" viewBox="0 0 600 155.15" enable-background="new 0 0 600 155.15" xml:space="preserve">
<g id="imgs">
</g>
<g id="content">
	<g>
		<rect x="0" y="59.65" fill="#EB8038" width="600" height="95.5"/>
		<rect x="66" y="0" fill="#EB8038" width="64.327" height="64.327"/>
		<path fill="#FFFFFF" d="M95.48,21.089c-2.402,0.002-11.698-0.01-14.1-0.057c-2.856-0.056-5.045-1.421-6.211-4.116
			c-0.34-0.786-0.431-1.679-0.659-2.517c-0.046-0.171-0.176-0.435-0.297-0.452c-1.088-0.159-2.183-0.274-3.3-0.404
			c-0.012,0.103-0.034,0.182-0.03,0.259c0.103,1.842,0.431,3.638,1.327,5.27c2.05,3.731,5.346,5.457,9.486,5.541
			c2.296,0.047,11.486,0.054,13.783,0.048V21.089z"/>
		<path fill="#FFFFFF" d="M95.507,47.24V26.42l-0.077-4.905l-0.675-0.017H82.662v0.545c1.643,0.009,9.359,0.844,9.359,2.506V47.24
			c0,1.662-0.822,2.492-2.465,2.492v0.545h8.417v-0.545C96.328,49.732,95.507,48.901,95.507,47.24z"/>
		<path fill="#FFFFFF" d="M100.299,21.089c2.402,0.002,11.698-0.01,14.1-0.057c2.856-0.056,5.045-1.421,6.211-4.116
			c0.34-0.786,0.431-1.679,0.659-2.517c0.046-0.171,0.176-0.435,0.297-0.452c1.088-0.159,2.183-0.274,3.3-0.404
			c0.012,0.103,0.034,0.182,0.03,0.259c-0.103,1.842-0.431,3.638-1.327,5.27c-2.05,3.731-5.346,5.457-9.486,5.541
			c-2.296,0.047-11.486,0.054-13.783,0.048V21.089z"/>
		<path fill="#FFFFFF" d="M100.228,47.24V26.42l0.077-4.905l0.675-0.017h12.093v0.545c-1.643,0.009-9.359,0.844-9.359,2.506V47.24
			c0,1.662,0.822,2.492,2.465,2.492v0.545h-8.417v-0.545C99.406,49.732,100.228,48.901,100.228,47.24z"/>
		<g>
			<rect x="73.916" y="120.277" fill="#FFFFFF" width="70.467" height="3"/>
		</g>
		<g>
			<path fill="#FFFFFF" d="M169.883,118.948h-0.574c-0.149,0-0.224-0.093-0.224-0.279c0-0.131,0.044-0.227,0.133-0.287
				c0.088-0.061,0.208-0.091,0.357-0.091h2.366c0.112,0,0.168,0.056,0.168,0.168c0,0.177-0.126,0.289-0.378,0.336l-0.798,0.168
				l1.512,5.054c0.037,0.112,0.063,0.229,0.077,0.351c0.014,0.121,0.021,0.2,0.021,0.237h0.056c0-0.037,0.009-0.116,0.028-0.237
				c0.019-0.122,0.042-0.238,0.07-0.351l1.638-5.726h1.19l1.75,5.726c0.028,0.112,0.051,0.229,0.07,0.351
				c0.019,0.121,0.028,0.2,0.028,0.237h0.056c0-0.037,0.007-0.116,0.021-0.237c0.014-0.122,0.04-0.238,0.077-0.351l1.414-5.068
				h-0.882c-0.149,0-0.224-0.093-0.224-0.279c0-0.131,0.044-0.227,0.133-0.287c0.088-0.061,0.208-0.091,0.357-0.091h2.198
				c0.103,0,0.154,0.056,0.154,0.168c0,0.158-0.122,0.271-0.364,0.336l-0.588,0.168l-1.778,6.174h-1.4l-1.582-5.264
				c-0.038-0.149-0.068-0.315-0.091-0.497c-0.023-0.183-0.035-0.301-0.035-0.357h-0.056c0,0.057-0.009,0.175-0.028,0.357
				c-0.019,0.182-0.052,0.348-0.098,0.497l-1.498,5.264h-1.4L169.883,118.948z"/>
			<path fill="#FFFFFF" d="M182.096,118.948h-0.574c-0.149,0-0.224-0.093-0.224-0.279c0-0.131,0.044-0.227,0.133-0.287
				c0.088-0.061,0.208-0.091,0.357-0.091h2.366c0.112,0,0.168,0.056,0.168,0.168c0,0.177-0.126,0.289-0.378,0.336l-0.798,0.168
				l1.512,5.054c0.037,0.112,0.063,0.229,0.077,0.351c0.014,0.121,0.021,0.2,0.021,0.237h0.056c0-0.037,0.009-0.116,0.028-0.237
				c0.019-0.122,0.042-0.238,0.07-0.351l1.638-5.726h1.19l1.75,5.726c0.028,0.112,0.051,0.229,0.07,0.351
				c0.019,0.121,0.028,0.2,0.028,0.237h0.056c0-0.037,0.007-0.116,0.021-0.237c0.014-0.122,0.04-0.238,0.077-0.351l1.414-5.068
				h-0.882c-0.149,0-0.224-0.093-0.224-0.279c0-0.131,0.044-0.227,0.133-0.287c0.088-0.061,0.208-0.091,0.357-0.091h2.198
				c0.103,0,0.154,0.056,0.154,0.168c0,0.158-0.122,0.271-0.364,0.336l-0.588,0.168l-1.778,6.174h-1.4l-1.582-5.264
				c-0.038-0.149-0.068-0.315-0.091-0.497c-0.023-0.183-0.035-0.301-0.035-0.357h-0.056c0,0.057-0.009,0.175-0.028,0.357
				c-0.019,0.182-0.052,0.348-0.098,0.497l-1.498,5.264h-1.4L182.096,118.948z"/>
			<path fill="#FFFFFF" d="M194.31,118.948h-0.574c-0.149,0-0.224-0.093-0.224-0.279c0-0.131,0.044-0.227,0.133-0.287
				c0.088-0.061,0.208-0.091,0.357-0.091h2.366c0.112,0,0.168,0.056,0.168,0.168c0,0.177-0.126,0.289-0.378,0.336l-0.798,0.168
				l1.512,5.054c0.037,0.112,0.063,0.229,0.077,0.351c0.014,0.121,0.021,0.2,0.021,0.237h0.056c0-0.037,0.009-0.116,0.028-0.237
				c0.019-0.122,0.042-0.238,0.07-0.351l1.638-5.726h1.19l1.75,5.726c0.028,0.112,0.051,0.229,0.07,0.351
				c0.019,0.121,0.028,0.2,0.028,0.237h0.056c0-0.037,0.007-0.116,0.021-0.237c0.014-0.122,0.04-0.238,0.077-0.351l1.414-5.068
				h-0.882c-0.149,0-0.224-0.093-0.224-0.279c0-0.131,0.044-0.227,0.133-0.287c0.088-0.061,0.208-0.091,0.357-0.091h2.198
				c0.103,0,0.154,0.056,0.154,0.168c0,0.158-0.122,0.271-0.364,0.336l-0.588,0.168l-1.778,6.174h-1.4l-1.582-5.264
				c-0.038-0.149-0.068-0.315-0.091-0.497c-0.023-0.183-0.035-0.301-0.035-0.357h-0.056c0,0.057-0.009,0.175-0.028,0.357
				c-0.019,0.182-0.052,0.348-0.098,0.497l-1.498,5.264h-1.4L194.31,118.948z"/>
			<path fill="#FFFFFF" d="M205.497,125.095c-0.145-0.14-0.217-0.317-0.217-0.532c0-0.205,0.072-0.378,0.217-0.518
				c0.145-0.141,0.32-0.21,0.525-0.21c0.196,0,0.366,0.069,0.511,0.21c0.145,0.14,0.217,0.313,0.217,0.518
				c0,0.215-0.073,0.393-0.217,0.532s-0.315,0.21-0.511,0.21C205.817,125.305,205.642,125.235,205.497,125.095z"/>
			<path fill="#FFFFFF" d="M208.21,124.857c0-0.121,0.044-0.214,0.133-0.279c0.088-0.065,0.208-0.099,0.357-0.099h0.434v-5.53h-0.7
				c-0.149,0-0.224-0.093-0.224-0.279c0-0.131,0.044-0.227,0.133-0.287c0.088-0.061,0.208-0.091,0.357-0.091h1.428v1.386h0.042
				c0.355-0.43,0.747-0.791,1.176-1.085c0.429-0.294,0.821-0.441,1.176-0.441c0.196,0,0.345,0.05,0.448,0.147
				c0.103,0.098,0.154,0.23,0.154,0.398c0,0.094-0.016,0.185-0.049,0.273s-0.077,0.161-0.133,0.217c-0.98,0-1.899,0.416-2.758,1.246
				v4.046l0.672,0.154c0.131,0.028,0.226,0.067,0.287,0.119c0.061,0.051,0.091,0.124,0.091,0.217c0,0.112-0.056,0.168-0.168,0.168
				h-2.632C208.285,125.137,208.21,125.044,208.21,124.857z"/>
			<path fill="#FFFFFF" d="M215.263,124.878c-0.504-0.285-0.896-0.693-1.176-1.226c-0.28-0.531-0.42-1.157-0.42-1.876
				c0-1.11,0.289-1.992,0.868-2.646s1.367-0.98,2.366-0.98c0.905,0,1.619,0.267,2.142,0.798c0.522,0.532,0.784,1.242,0.784,2.129
				c0,0.289-0.061,0.583-0.182,0.882h-4.914c0,0.858,0.219,1.517,0.658,1.974s0.994,0.687,1.666,0.687
				c0.354,0,0.674-0.045,0.959-0.134c0.285-0.088,0.567-0.23,0.847-0.427c0.019-0.009,0.058-0.032,0.119-0.07
				c0.061-0.037,0.119-0.056,0.175-0.056c0.084,0,0.154,0.033,0.21,0.098c0.056,0.065,0.084,0.146,0.084,0.238
				c0,0.168-0.145,0.341-0.434,0.519c-0.579,0.345-1.246,0.518-2.002,0.518C216.351,125.305,215.767,125.162,215.263,124.878z
				 M218.707,121.259c0.038-0.084,0.056-0.215,0.056-0.392c0-0.645-0.173-1.144-0.518-1.498c-0.345-0.355-0.803-0.532-1.372-0.532
				c-0.597,0-1.092,0.217-1.484,0.65c-0.392,0.435-0.611,1.024-0.658,1.771H218.707z"/>
			<path fill="#FFFFFF" d="M221.141,118.948h-0.574c-0.149,0-0.224-0.093-0.224-0.279c0-0.131,0.044-0.227,0.133-0.287
				c0.088-0.061,0.208-0.091,0.357-0.091h2.366c0.112,0,0.168,0.056,0.168,0.168c0,0.084-0.035,0.156-0.105,0.217
				c-0.07,0.061-0.161,0.101-0.273,0.119l-0.742,0.168l1.764,5.124c0.038,0.093,0.068,0.2,0.091,0.322
				c0.023,0.121,0.04,0.2,0.049,0.237h0.056c0-0.037,0.012-0.116,0.035-0.237c0.023-0.122,0.053-0.229,0.091-0.322l1.82-5.139
				h-0.868c-0.149,0-0.224-0.093-0.224-0.279c0-0.131,0.044-0.227,0.133-0.287s0.208-0.091,0.357-0.091h2.198
				c0.103,0,0.154,0.056,0.154,0.168c0,0.158-0.121,0.271-0.364,0.336l-0.588,0.168l-2.198,6.174h-1.414L221.141,118.948z"/>
			<path fill="#FFFFFF" d="M229.076,124.353c-0.579-0.635-0.868-1.512-0.868-2.632c0-1.11,0.292-1.983,0.875-2.618
				c0.583-0.635,1.37-0.952,2.359-0.952c0.999,0,1.79,0.317,2.373,0.952c0.583,0.635,0.875,1.508,0.875,2.618
				c0,1.12-0.292,1.997-0.875,2.632c-0.583,0.635-1.375,0.952-2.373,0.952S229.655,124.988,229.076,124.353z M233.052,123.863
				c0.383-0.504,0.574-1.218,0.574-2.142c0-0.915-0.191-1.624-0.574-2.128s-0.915-0.756-1.596-0.756
				c-0.691,0-1.228,0.252-1.61,0.756c-0.383,0.504-0.574,1.213-0.574,2.128c0,0.924,0.191,1.638,0.574,2.142
				c0.382,0.505,0.919,0.757,1.61,0.757C232.137,124.619,232.669,124.367,233.052,123.863z"/>
			<path fill="#FFFFFF" d="M235.568,124.857c0-0.121,0.044-0.214,0.133-0.279c0.088-0.065,0.208-0.099,0.357-0.099h0.434v-8.624
				h-0.7c-0.149,0-0.224-0.093-0.224-0.279c0-0.131,0.044-0.227,0.133-0.287c0.088-0.061,0.208-0.092,0.357-0.092h1.484v9.282
				l0.672,0.154c0.13,0.028,0.226,0.067,0.287,0.119c0.061,0.051,0.091,0.124,0.091,0.217c0,0.112-0.056,0.168-0.168,0.168h-2.632
				C235.642,125.137,235.568,125.044,235.568,124.857z"/>
			<path fill="#FFFFFF" d="M240.542,124.724c-0.429-0.387-0.644-0.917-0.644-1.589v-4.187h-0.7c-0.149,0-0.224-0.093-0.224-0.279
				c0-0.131,0.044-0.227,0.133-0.287s0.208-0.091,0.357-0.091h1.484v4.76c0,0.457,0.133,0.826,0.399,1.105
				c0.266,0.28,0.646,0.421,1.141,0.421c0.364,0,0.73-0.103,1.099-0.309c0.369-0.205,0.707-0.48,1.015-0.826v-4.494h-0.7
				c-0.149,0-0.224-0.093-0.224-0.279c0-0.131,0.044-0.227,0.133-0.287c0.088-0.061,0.208-0.091,0.357-0.091h1.484v6.188l0.56,0.154
				c0.131,0.037,0.226,0.082,0.287,0.133c0.061,0.052,0.091,0.119,0.091,0.203c0,0.112-0.056,0.168-0.168,0.168h-1.764v-0.952
				h-0.042c-0.793,0.747-1.605,1.12-2.436,1.12C241.517,125.305,240.971,125.112,240.542,124.724z"/>
			<path fill="#FFFFFF" d="M248.812,124.843c-0.336-0.308-0.504-0.732-0.504-1.274v-4.535h-0.952c-0.075,0-0.133-0.028-0.175-0.085
				c-0.042-0.056-0.063-0.13-0.063-0.224c0-0.121,0.044-0.219,0.133-0.294c0.088-0.074,0.208-0.112,0.357-0.112h0.714l0.182-1.483
				h0.854v1.483h2.128c0.112,0,0.168,0.057,0.168,0.168c0,0.112-0.047,0.196-0.14,0.252c-0.093,0.057-0.238,0.094-0.434,0.112
				l-1.722,0.183v4.605c0,0.317,0.082,0.558,0.245,0.721c0.164,0.164,0.385,0.245,0.665,0.245c0.196,0,0.369-0.027,0.518-0.084
				c0.149-0.056,0.294-0.149,0.434-0.28c0.112-0.093,0.201-0.14,0.266-0.14c0.084,0,0.154,0.026,0.21,0.077
				c0.056,0.052,0.084,0.124,0.084,0.217c0,0.178-0.14,0.359-0.42,0.546c-0.346,0.243-0.775,0.364-1.288,0.364
				C249.568,125.305,249.148,125.151,248.812,124.843z"/>
			<path fill="#FFFFFF" d="M252.841,124.857c0-0.121,0.044-0.214,0.133-0.279c0.088-0.065,0.208-0.099,0.357-0.099h0.434v-5.53h-0.7
				c-0.149,0-0.224-0.093-0.224-0.279c0-0.131,0.044-0.227,0.133-0.287c0.088-0.061,0.208-0.091,0.357-0.091h1.428v1.386h0.042
				c0.355-0.43,0.747-0.791,1.176-1.085c0.429-0.294,0.821-0.441,1.176-0.441c0.196,0,0.345,0.05,0.448,0.147
				c0.103,0.098,0.154,0.23,0.154,0.398c0,0.094-0.016,0.185-0.049,0.273s-0.077,0.161-0.133,0.217c-0.98,0-1.899,0.416-2.758,1.246
				v4.046l0.672,0.154c0.131,0.028,0.226,0.067,0.287,0.119c0.061,0.051,0.091,0.124,0.091,0.217c0,0.112-0.056,0.168-0.168,0.168
				h-2.632C252.915,125.137,252.841,125.044,252.841,124.857z"/>
			<path fill="#FFFFFF" d="M259.139,124.801c-0.42-0.336-0.63-0.808-0.63-1.414c0-0.653,0.233-1.141,0.7-1.463
				s1.083-0.539,1.848-0.651l1.974-0.294v-0.616c0-0.457-0.14-0.825-0.42-1.105c-0.28-0.28-0.672-0.42-1.176-0.42
				c-0.29,0-0.614,0.051-0.973,0.153c-0.359,0.104-0.656,0.229-0.889,0.379l-0.112,0.615c-0.047,0.271-0.168,0.406-0.364,0.406
				c-0.065,0-0.117-0.016-0.154-0.049c-0.037-0.032-0.056-0.077-0.056-0.133v-1.274c0.373-0.224,0.805-0.41,1.295-0.56
				c0.49-0.149,0.959-0.225,1.407-0.225c0.728,0,1.325,0.196,1.792,0.588c0.467,0.393,0.7,0.938,0.7,1.639v4.116l0.518,0.14
				c0.13,0.037,0.226,0.082,0.287,0.133c0.061,0.052,0.091,0.119,0.091,0.203c0,0.112-0.051,0.168-0.154,0.168h-1.764v-0.98h-0.056
				c-0.252,0.346-0.579,0.623-0.98,0.833c-0.401,0.211-0.859,0.315-1.372,0.315C260.063,125.305,259.559,125.137,259.139,124.801z
				 M261.968,124.346c0.317-0.163,0.574-0.385,0.77-0.665c0.196-0.28,0.294-0.588,0.294-0.924v-1.12l-1.736,0.28
				c-0.551,0.093-0.975,0.25-1.274,0.469c-0.299,0.22-0.448,0.534-0.448,0.945c0,0.41,0.13,0.723,0.392,0.938
				s0.597,0.322,1.008,0.322C261.319,124.591,261.65,124.509,261.968,124.346z"/>
			<path fill="#FFFFFF" d="M267.159,124.92c-0.467-0.257-0.837-0.648-1.113-1.176s-0.413-1.184-0.413-1.968
				c0-0.728,0.138-1.367,0.413-1.918c0.275-0.55,0.656-0.973,1.141-1.267c0.485-0.294,1.036-0.441,1.652-0.441
				c0.737,0,1.428,0.215,2.072,0.645v-2.94h-0.7c-0.149,0-0.224-0.093-0.224-0.279c0-0.253,0.163-0.379,0.49-0.379h1.456v9.282
				l0.56,0.154c0.131,0.037,0.227,0.082,0.287,0.133c0.061,0.052,0.091,0.119,0.091,0.203c0,0.112-0.052,0.168-0.154,0.168h-1.764
				v-0.952h-0.056c-0.224,0.336-0.516,0.607-0.875,0.813c-0.359,0.205-0.796,0.308-1.309,0.308
				C268.143,125.305,267.625,125.177,267.159,124.92z M270.33,124.094c0.378-0.35,0.567-0.796,0.567-1.337v-3.206
				c-0.551-0.476-1.171-0.714-1.862-0.714c-0.439,0-0.833,0.111-1.183,0.336c-0.35,0.224-0.63,0.556-0.84,0.994
				s-0.315,0.976-0.315,1.609c0,0.896,0.194,1.594,0.581,2.094c0.387,0.499,0.95,0.749,1.687,0.749
				C269.497,124.619,269.952,124.444,270.33,124.094z"/>
			<path fill="#FFFFFF" d="M273.918,124.857c0-0.121,0.044-0.214,0.133-0.279s0.208-0.099,0.357-0.099h0.448v-5.53h-0.714
				c-0.149,0-0.224-0.093-0.224-0.279c0-0.131,0.044-0.227,0.133-0.287s0.208-0.091,0.357-0.091h1.498v6.188l0.658,0.154
				c0.13,0.028,0.226,0.067,0.287,0.119c0.061,0.051,0.091,0.124,0.091,0.217c0,0.112-0.056,0.168-0.168,0.168h-2.632
				C273.992,125.137,273.918,125.044,273.918,124.857z M274.807,116.954c-0.145-0.136-0.217-0.32-0.217-0.554
				c0-0.232,0.072-0.417,0.217-0.553c0.145-0.135,0.324-0.203,0.539-0.203c0.215,0,0.397,0.068,0.546,0.203
				c0.149,0.136,0.224,0.32,0.224,0.553c0,0.233-0.075,0.418-0.224,0.554c-0.149,0.135-0.332,0.202-0.546,0.202
				C275.131,117.156,274.951,117.089,274.807,116.954z"/>
			<path fill="#FFFFFF" d="M277.954,124.857c0-0.121,0.044-0.214,0.133-0.279c0.088-0.065,0.208-0.099,0.357-0.099h0.434v-5.53h-0.7
				c-0.149,0-0.224-0.093-0.224-0.279c0-0.131,0.044-0.227,0.133-0.287c0.088-0.061,0.208-0.091,0.357-0.091h1.428v0.979h0.042
				c0.793-0.746,1.61-1.12,2.45-1.12c0.663,0,1.208,0.194,1.638,0.581c0.429,0.388,0.644,0.913,0.644,1.575v4.172l0.672,0.154
				c0.252,0.056,0.378,0.168,0.378,0.336c0,0.112-0.056,0.168-0.168,0.168h-2.632c-0.149,0-0.224-0.093-0.224-0.28
				c0-0.121,0.044-0.214,0.133-0.279s0.208-0.099,0.357-0.099h0.434v-4.088c0-0.457-0.133-0.823-0.399-1.099
				s-0.646-0.413-1.141-0.413c-0.364,0-0.733,0.101-1.106,0.301c-0.374,0.201-0.714,0.474-1.022,0.819v4.479l0.672,0.154
				c0.131,0.028,0.226,0.067,0.287,0.119c0.061,0.051,0.091,0.124,0.091,0.217c0,0.112-0.056,0.168-0.168,0.168h-2.632
				C278.029,125.137,277.954,125.044,277.954,124.857z"/>
			<path fill="#FFFFFF" d="M288.348,128.21c-0.392-0.099-0.732-0.231-1.022-0.399c-0.149-0.093-0.264-0.18-0.343-0.259
				c-0.08-0.079-0.119-0.171-0.119-0.273s0.028-0.182,0.084-0.237c0.056-0.057,0.121-0.084,0.196-0.084
				c0.046,0,0.1,0.016,0.161,0.049c0.061,0.032,0.105,0.058,0.133,0.077c0.298,0.187,0.627,0.329,0.987,0.427
				s0.721,0.146,1.085,0.146c0.681,0,1.197-0.163,1.547-0.489c0.35-0.327,0.525-0.813,0.525-1.456v-1.484h-0.056
				c-0.233,0.327-0.532,0.588-0.896,0.784c-0.364,0.196-0.798,0.294-1.302,0.294c-0.56,0-1.073-0.128-1.54-0.385
				s-0.837-0.648-1.113-1.176s-0.413-1.184-0.413-1.968c0-0.783,0.154-1.448,0.462-1.995c0.308-0.546,0.721-0.954,1.239-1.225
				s1.099-0.406,1.743-0.406c0.504,0,1.02,0.099,1.547,0.294c0.527,0.196,0.973,0.448,1.337,0.757v6.355
				c0,0.887-0.259,1.575-0.777,2.065c-0.518,0.489-1.276,0.734-2.275,0.734C289.137,128.357,288.741,128.308,288.348,128.21z
				 M290.547,124.381c0.298-0.159,0.539-0.38,0.721-0.665c0.182-0.285,0.273-0.604,0.273-0.959v-3.332
				c-0.252-0.187-0.542-0.331-0.868-0.435c-0.327-0.103-0.649-0.153-0.966-0.153c-0.439,0-0.838,0.109-1.197,0.329
				c-0.359,0.219-0.646,0.551-0.861,0.994c-0.215,0.443-0.322,0.982-0.322,1.616c0,0.896,0.196,1.594,0.588,2.094
				c0.392,0.499,0.947,0.749,1.666,0.749C289.926,124.619,290.248,124.539,290.547,124.381z"/>
			<path fill="#FFFFFF" d="M294.596,125.095c-0.145-0.14-0.217-0.317-0.217-0.532c0-0.205,0.072-0.378,0.217-0.518
				c0.145-0.141,0.32-0.21,0.525-0.21c0.196,0,0.366,0.069,0.511,0.21c0.145,0.14,0.217,0.313,0.217,0.518
				c0,0.215-0.073,0.393-0.217,0.532s-0.315,0.21-0.511,0.21C294.916,125.305,294.742,125.235,294.596,125.095z"/>
			<path fill="#FFFFFF" d="M297.947,124.339c-0.602-0.645-0.903-1.517-0.903-2.618c0-0.728,0.135-1.362,0.406-1.904
				c0.271-0.541,0.648-0.954,1.134-1.238c0.485-0.285,1.05-0.428,1.694-0.428c0.458,0,0.91,0.084,1.358,0.252
				c0.448,0.168,0.789,0.364,1.022,0.588v1.246c0,0.057-0.019,0.101-0.056,0.134c-0.038,0.032-0.093,0.049-0.168,0.049
				c-0.093,0-0.168-0.03-0.224-0.091s-0.098-0.161-0.126-0.302l-0.126-0.686c-0.168-0.149-0.397-0.269-0.686-0.357
				c-0.29-0.088-0.583-0.133-0.882-0.133c-0.691,0-1.246,0.25-1.666,0.749c-0.42,0.5-0.63,1.206-0.63,2.121s0.217,1.626,0.651,2.135
				s1.005,0.764,1.715,0.764c0.635,0,1.208-0.183,1.722-0.547c0.019-0.009,0.056-0.034,0.112-0.076
				c0.056-0.042,0.112-0.063,0.168-0.063c0.084,0,0.154,0.033,0.21,0.098c0.056,0.065,0.084,0.146,0.084,0.238
				c0,0.178-0.154,0.354-0.462,0.532c-0.579,0.336-1.208,0.504-1.89,0.504C299.368,125.305,298.549,124.983,297.947,124.339z"/>
			<path fill="#FFFFFF" d="M304.594,124.353c-0.579-0.635-0.868-1.512-0.868-2.632c0-1.11,0.292-1.983,0.875-2.618
				c0.583-0.635,1.37-0.952,2.359-0.952c0.999,0,1.79,0.317,2.373,0.952c0.583,0.635,0.875,1.508,0.875,2.618
				c0,1.12-0.292,1.997-0.875,2.632c-0.583,0.635-1.375,0.952-2.373,0.952S305.173,124.988,304.594,124.353z M308.57,123.863
				c0.383-0.504,0.574-1.218,0.574-2.142c0-0.915-0.191-1.624-0.574-2.128s-0.915-0.756-1.596-0.756
				c-0.691,0-1.228,0.252-1.61,0.756c-0.383,0.504-0.574,1.213-0.574,2.128c0,0.924,0.191,1.638,0.574,2.142
				c0.382,0.505,0.919,0.757,1.61,0.757C307.655,124.619,308.187,124.367,308.57,123.863z"/>
			<path fill="#FFFFFF" d="M311.093,124.857c0-0.121,0.044-0.214,0.133-0.279c0.088-0.065,0.208-0.099,0.357-0.099h0.434v-5.53h-0.7
				c-0.149,0-0.224-0.093-0.224-0.279c0-0.131,0.044-0.227,0.133-0.287c0.088-0.061,0.208-0.091,0.357-0.091h1.428v0.952h0.042
				c0.364-0.327,0.735-0.591,1.113-0.791c0.378-0.201,0.781-0.302,1.211-0.302c0.429,0,0.812,0.101,1.148,0.302
				c0.336,0.2,0.579,0.492,0.728,0.875c0.382-0.355,0.77-0.64,1.162-0.854s0.821-0.322,1.288-0.322c0.597,0,1.091,0.183,1.484,0.546
				c0.393,0.364,0.588,0.883,0.588,1.555v4.242l0.645,0.14c0.242,0.047,0.363,0.159,0.363,0.336c0,0.112-0.056,0.168-0.168,0.168
				h-2.59c-0.149,0-0.224-0.093-0.224-0.28c0-0.121,0.044-0.214,0.133-0.279c0.088-0.065,0.208-0.099,0.357-0.099h0.434v-4.144
				c0-0.477-0.119-0.838-0.357-1.085c-0.238-0.247-0.562-0.371-0.973-0.371c-0.346,0-0.686,0.098-1.022,0.294
				s-0.653,0.448-0.952,0.756v4.564l0.658,0.14c0.242,0.047,0.364,0.159,0.364,0.336c0,0.112-0.056,0.168-0.168,0.168h-2.59
				c-0.149,0-0.224-0.093-0.224-0.28c0-0.121,0.044-0.214,0.133-0.279s0.208-0.099,0.357-0.099h0.42v-4.144
				c0-0.477-0.117-0.838-0.35-1.085c-0.233-0.247-0.556-0.371-0.966-0.371c-0.345,0-0.688,0.098-1.029,0.294s-0.66,0.453-0.959,0.77
				v4.551l0.672,0.14c0.233,0.047,0.35,0.159,0.35,0.336c0,0.112-0.051,0.168-0.154,0.168h-2.618
				C311.167,125.137,311.093,125.044,311.093,124.857z"/>
		</g>
		<g>
			<path fill="#2C2C2B" d="M67.386,90.07h-0.882c-0.204,0-0.306-0.126-0.306-0.378c0-0.156,0.057-0.279,0.171-0.369
				c0.114-0.09,0.272-0.135,0.477-0.135h3.366c0.144,0,0.216,0.078,0.216,0.233c0,0.252-0.18,0.414-0.54,0.486l-0.954,0.18
				l3.294,9.576c0.072,0.204,0.135,0.42,0.189,0.648c0.054,0.228,0.087,0.372,0.099,0.432h0.09c0.012-0.06,0.042-0.201,0.09-0.423
				s0.108-0.441,0.18-0.657l3.402-9.594h-1.116c-0.096,0-0.171-0.033-0.225-0.099c-0.054-0.066-0.081-0.159-0.081-0.279
				c0-0.156,0.06-0.279,0.18-0.369c0.12-0.09,0.282-0.135,0.486-0.135h3.042c0.132,0,0.198,0.078,0.198,0.233
				c0,0.204-0.144,0.349-0.432,0.433l-0.918,0.233l-4.14,11.61h-1.764L67.386,90.07z"/>
			<path fill="#2C2C2B" d="M79.507,101.338c0-0.155,0.057-0.275,0.171-0.359c0.114-0.084,0.267-0.126,0.459-0.126h0.576v-7.11
				h-0.918c-0.192,0-0.288-0.12-0.288-0.36c0-0.168,0.057-0.29,0.171-0.368c0.114-0.078,0.267-0.117,0.459-0.117h1.926v7.956
				l0.846,0.197c0.168,0.036,0.291,0.088,0.369,0.153c0.078,0.066,0.117,0.159,0.117,0.279c0,0.144-0.072,0.216-0.216,0.216h-3.384
				C79.603,101.698,79.507,101.578,79.507,101.338z M80.65,91.177c-0.186-0.173-0.279-0.41-0.279-0.711
				c0-0.3,0.093-0.536,0.279-0.711c0.186-0.174,0.417-0.261,0.693-0.261s0.51,0.087,0.702,0.261
				c0.192,0.175,0.288,0.411,0.288,0.711c0,0.301-0.096,0.538-0.288,0.711c-0.192,0.175-0.426,0.262-0.702,0.262
				S80.836,91.351,80.65,91.177z"/>
			<path fill="#2C2C2B" d="M86.034,101.653c-0.612-0.174-1.086-0.405-1.422-0.693v-1.638c0-0.168,0.09-0.252,0.27-0.252
				c0.228,0,0.378,0.174,0.45,0.521l0.162,0.811c0.228,0.204,0.555,0.357,0.981,0.459c0.426,0.102,0.849,0.153,1.269,0.153
				c0.624,0,1.131-0.103,1.521-0.307c0.39-0.204,0.585-0.54,0.585-1.008c0-0.324-0.079-0.585-0.234-0.783
				c-0.156-0.197-0.393-0.381-0.711-0.549s-0.831-0.396-1.539-0.684c-0.924-0.396-1.602-0.789-2.034-1.18
				c-0.432-0.39-0.648-0.891-0.648-1.503c0-0.756,0.303-1.325,0.909-1.71c0.606-0.384,1.341-0.576,2.205-0.576
				c0.588,0,1.17,0.108,1.746,0.324s1.014,0.468,1.314,0.756v1.584c0,0.156-0.09,0.234-0.27,0.234c-0.12,0-0.216-0.039-0.288-0.117
				c-0.072-0.078-0.126-0.207-0.162-0.387l-0.162-0.864c-0.216-0.191-0.513-0.345-0.891-0.459s-0.759-0.171-1.143-0.171
				c-0.54,0-0.99,0.103-1.35,0.306c-0.36,0.204-0.54,0.522-0.54,0.954c0,0.288,0.087,0.531,0.261,0.729
				c0.174,0.198,0.405,0.372,0.693,0.521c0.288,0.15,0.822,0.399,1.602,0.747c0.948,0.408,1.62,0.805,2.016,1.188
				s0.594,0.912,0.594,1.584c0,0.78-0.324,1.353-0.972,1.719c-0.648,0.366-1.446,0.549-2.394,0.549
				C87.251,101.914,86.646,101.827,86.034,101.653z"/>
			<path fill="#2C2C2B" d="M92.494,101.338c0-0.155,0.057-0.275,0.171-0.359c0.114-0.084,0.267-0.126,0.459-0.126H93.7v-7.11h-0.918
				c-0.192,0-0.288-0.12-0.288-0.36c0-0.168,0.057-0.29,0.171-0.368c0.114-0.078,0.267-0.117,0.459-0.117h1.926v7.956l0.846,0.197
				c0.168,0.036,0.291,0.088,0.369,0.153c0.078,0.066,0.117,0.159,0.117,0.279c0,0.144-0.072,0.216-0.216,0.216h-3.384
				C92.59,101.698,92.494,101.578,92.494,101.338z M93.637,91.177c-0.186-0.173-0.279-0.41-0.279-0.711
				c0-0.3,0.093-0.536,0.279-0.711c0.186-0.174,0.417-0.261,0.693-0.261s0.51,0.087,0.702,0.261
				c0.192,0.175,0.288,0.411,0.288,0.711c0,0.301-0.096,0.538-0.288,0.711c-0.192,0.175-0.426,0.262-0.702,0.262
				S93.823,91.351,93.637,91.177z"/>
			<path fill="#2C2C2B" d="M99.06,101.32c-0.432-0.396-0.648-0.942-0.648-1.638V93.85h-1.224c-0.096,0-0.171-0.036-0.225-0.108
				s-0.081-0.168-0.081-0.288c0-0.155,0.057-0.281,0.171-0.378c0.114-0.096,0.267-0.144,0.459-0.144h0.918l0.234-1.908h1.098v1.908
				h2.736c0.144,0,0.216,0.071,0.216,0.216c0,0.144-0.06,0.252-0.18,0.324c-0.12,0.071-0.306,0.12-0.558,0.144l-2.214,0.234v5.922
				c0,0.408,0.105,0.717,0.315,0.927s0.495,0.315,0.855,0.315c0.252,0,0.474-0.036,0.666-0.108s0.378-0.191,0.558-0.36
				c0.144-0.119,0.258-0.18,0.342-0.18c0.108,0,0.198,0.033,0.27,0.099c0.072,0.066,0.108,0.159,0.108,0.279
				c0,0.229-0.18,0.462-0.54,0.702c-0.444,0.312-0.996,0.468-1.656,0.468C100.032,101.914,99.492,101.716,99.06,101.32z"/>
			<path fill="#2C2C2B" d="M105.808,101.365c-0.648-0.366-1.152-0.891-1.512-1.575c-0.36-0.684-0.54-1.487-0.54-2.412
				c0-1.428,0.372-2.562,1.116-3.401s1.758-1.261,3.042-1.261c1.164,0,2.082,0.343,2.754,1.026s1.008,1.596,1.008,2.736
				c0,0.372-0.079,0.75-0.234,1.134h-6.318c0,1.104,0.282,1.95,0.846,2.538c0.564,0.588,1.278,0.882,2.142,0.882
				c0.456,0,0.867-0.057,1.233-0.171c0.366-0.114,0.729-0.297,1.089-0.549c0.024-0.012,0.075-0.042,0.153-0.09
				s0.153-0.072,0.225-0.072c0.108,0,0.198,0.042,0.27,0.126c0.072,0.084,0.108,0.187,0.108,0.306c0,0.216-0.186,0.438-0.558,0.666
				c-0.744,0.444-1.602,0.666-2.574,0.666C107.206,101.914,106.456,101.731,105.808,101.365z M110.236,96.712
				c0.048-0.107,0.072-0.275,0.072-0.504c0-0.828-0.222-1.47-0.666-1.926c-0.444-0.456-1.032-0.684-1.764-0.684
				c-0.768,0-1.404,0.278-1.908,0.837c-0.504,0.558-0.786,1.316-0.846,2.276H110.236z"/>
			<path fill="#2C2C2B" d="M118.408,101.338c0-0.155,0.057-0.275,0.171-0.359c0.114-0.084,0.267-0.126,0.459-0.126h0.558v-7.11h-0.9
				c-0.192,0-0.288-0.12-0.288-0.36c0-0.168,0.057-0.29,0.171-0.368c0.114-0.078,0.267-0.117,0.459-0.117h1.836v1.26h0.054
				c1.02-0.96,2.07-1.44,3.15-1.44c0.852,0,1.554,0.25,2.106,0.747c0.552,0.498,0.828,1.174,0.828,2.025v5.364l0.864,0.197
				c0.324,0.072,0.486,0.217,0.486,0.433c0,0.144-0.072,0.216-0.216,0.216h-3.384c-0.192,0-0.288-0.12-0.288-0.36
				c0-0.155,0.057-0.275,0.171-0.359c0.114-0.084,0.267-0.126,0.459-0.126h0.558v-5.256c0-0.588-0.171-1.06-0.513-1.413
				c-0.342-0.354-0.831-0.531-1.467-0.531c-0.468,0-0.942,0.129-1.422,0.387c-0.48,0.259-0.918,0.609-1.314,1.053v5.761l0.864,0.197
				c0.168,0.036,0.291,0.088,0.369,0.153c0.078,0.066,0.117,0.159,0.117,0.279c0,0.144-0.072,0.216-0.216,0.216h-3.384
				C118.504,101.698,118.408,101.578,118.408,101.338z"/>
			<path fill="#2C2C2B" d="M130.644,101.167c-0.552-0.498-0.828-1.179-0.828-2.043v-5.382h-0.9c-0.192,0-0.288-0.12-0.288-0.36
				c0-0.168,0.057-0.29,0.171-0.368c0.114-0.078,0.267-0.117,0.459-0.117h1.908v6.12c0,0.588,0.171,1.062,0.513,1.422
				c0.342,0.359,0.831,0.54,1.467,0.54c0.468,0,0.939-0.132,1.413-0.396c0.474-0.264,0.909-0.618,1.305-1.062v-5.778h-0.9
				c-0.192,0-0.288-0.12-0.288-0.36c0-0.168,0.057-0.29,0.171-0.368c0.114-0.078,0.267-0.117,0.459-0.117h1.908v7.956l0.72,0.197
				c0.168,0.049,0.291,0.105,0.369,0.172c0.078,0.065,0.117,0.152,0.117,0.261c0,0.144-0.072,0.216-0.216,0.216h-2.268v-1.224
				h-0.054c-1.02,0.96-2.064,1.439-3.132,1.439C131.898,101.914,131.196,101.665,130.644,101.167z"/>
			<path fill="#2C2C2B" d="M141.353,101.365c-0.648-0.366-1.152-0.891-1.512-1.575c-0.36-0.684-0.54-1.487-0.54-2.412
				c0-1.428,0.372-2.562,1.116-3.401s1.758-1.261,3.042-1.261c1.164,0,2.082,0.343,2.754,1.026s1.008,1.596,1.008,2.736
				c0,0.372-0.079,0.75-0.234,1.134h-6.318c0,1.104,0.282,1.95,0.846,2.538c0.564,0.588,1.278,0.882,2.142,0.882
				c0.456,0,0.867-0.057,1.233-0.171c0.366-0.114,0.729-0.297,1.089-0.549c0.024-0.012,0.075-0.042,0.153-0.09
				s0.153-0.072,0.225-0.072c0.108,0,0.198,0.042,0.27,0.126c0.072,0.084,0.108,0.187,0.108,0.306c0,0.216-0.186,0.438-0.558,0.666
				c-0.744,0.444-1.602,0.666-2.574,0.666C142.751,101.914,142.001,101.731,141.353,101.365z M145.78,96.712
				c0.048-0.107,0.072-0.275,0.072-0.504c0-0.828-0.222-1.47-0.666-1.926c-0.444-0.456-1.032-0.684-1.764-0.684
				c-0.768,0-1.404,0.278-1.908,0.837c-0.504,0.558-0.786,1.316-0.846,2.276H145.78z"/>
			<path fill="#2C2C2B" d="M149.985,101.653c-0.612-0.174-1.086-0.405-1.422-0.693v-1.638c0-0.168,0.09-0.252,0.27-0.252
				c0.228,0,0.378,0.174,0.45,0.521l0.162,0.811c0.228,0.204,0.555,0.357,0.981,0.459c0.426,0.102,0.849,0.153,1.269,0.153
				c0.624,0,1.131-0.103,1.521-0.307c0.39-0.204,0.585-0.54,0.585-1.008c0-0.324-0.079-0.585-0.234-0.783
				c-0.156-0.197-0.393-0.381-0.711-0.549s-0.831-0.396-1.539-0.684c-0.924-0.396-1.602-0.789-2.034-1.18
				c-0.432-0.39-0.648-0.891-0.648-1.503c0-0.756,0.303-1.325,0.909-1.71c0.606-0.384,1.341-0.576,2.205-0.576
				c0.588,0,1.17,0.108,1.746,0.324s1.014,0.468,1.314,0.756v1.584c0,0.156-0.09,0.234-0.27,0.234c-0.12,0-0.216-0.039-0.288-0.117
				c-0.072-0.078-0.126-0.207-0.162-0.387l-0.162-0.864c-0.216-0.191-0.513-0.345-0.891-0.459s-0.759-0.171-1.143-0.171
				c-0.54,0-0.99,0.103-1.35,0.306c-0.36,0.204-0.54,0.522-0.54,0.954c0,0.288,0.087,0.531,0.261,0.729
				c0.174,0.198,0.405,0.372,0.693,0.521c0.288,0.15,0.822,0.399,1.602,0.747c0.948,0.408,1.62,0.805,2.016,1.188
				s0.594,0.912,0.594,1.584c0,0.78-0.324,1.353-0.972,1.719c-0.648,0.366-1.446,0.549-2.394,0.549
				C151.203,101.914,150.597,101.827,149.985,101.653z"/>
			<path fill="#2C2C2B" d="M158.562,101.32c-0.432-0.396-0.648-0.942-0.648-1.638V93.85h-1.224c-0.096,0-0.171-0.036-0.225-0.108
				s-0.081-0.168-0.081-0.288c0-0.155,0.057-0.281,0.171-0.378c0.114-0.096,0.267-0.144,0.459-0.144h0.918l0.234-1.908h1.098v1.908
				H162c0.144,0,0.216,0.071,0.216,0.216c0,0.144-0.06,0.252-0.18,0.324c-0.12,0.071-0.306,0.12-0.558,0.144l-2.214,0.234v5.922
				c0,0.408,0.105,0.717,0.315,0.927s0.495,0.315,0.855,0.315c0.252,0,0.474-0.036,0.666-0.108s0.378-0.191,0.558-0.36
				c0.144-0.119,0.258-0.18,0.342-0.18c0.108,0,0.198,0.033,0.27,0.099c0.072,0.066,0.108,0.159,0.108,0.279
				c0,0.229-0.18,0.462-0.54,0.702c-0.444,0.312-0.996,0.468-1.656,0.468C159.534,101.914,158.994,101.716,158.562,101.32z"/>
			<path fill="#2C2C2B" d="M163.72,101.338c0-0.155,0.057-0.275,0.171-0.359c0.114-0.084,0.267-0.126,0.459-0.126h0.558v-7.11h-0.9
				c-0.192,0-0.288-0.12-0.288-0.36c0-0.168,0.057-0.29,0.171-0.368c0.114-0.078,0.267-0.117,0.459-0.117h1.836v1.782h0.054
				c0.456-0.553,0.96-1.018,1.512-1.396c0.552-0.378,1.056-0.567,1.512-0.567c0.252,0,0.444,0.063,0.576,0.189
				s0.198,0.297,0.198,0.513c0,0.12-0.021,0.237-0.063,0.352c-0.042,0.114-0.099,0.207-0.171,0.278c-1.26,0-2.442,0.534-3.546,1.603
				v5.202l0.864,0.197c0.168,0.036,0.291,0.088,0.369,0.153c0.078,0.066,0.117,0.159,0.117,0.279c0,0.144-0.072,0.216-0.216,0.216
				h-3.384C163.816,101.698,163.72,101.578,163.72,101.338z"/>
			<path fill="#2C2C2B" d="M171.795,101.266c-0.54-0.433-0.81-1.038-0.81-1.818c0-0.84,0.3-1.467,0.9-1.881s1.392-0.693,2.376-0.837
				l2.538-0.378V95.56c0-0.588-0.18-1.063-0.54-1.422c-0.36-0.36-0.864-0.54-1.512-0.54c-0.372,0-0.79,0.065-1.251,0.197
				c-0.462,0.133-0.843,0.295-1.143,0.486l-0.144,0.792c-0.06,0.349-0.216,0.522-0.468,0.522c-0.084,0-0.15-0.021-0.198-0.063
				c-0.048-0.042-0.072-0.099-0.072-0.171v-1.638c0.48-0.288,1.035-0.528,1.665-0.721c0.63-0.191,1.233-0.288,1.809-0.288
				c0.936,0,1.704,0.252,2.304,0.757c0.6,0.504,0.9,1.206,0.9,2.105v5.292l0.666,0.18c0.168,0.049,0.291,0.105,0.369,0.172
				c0.078,0.065,0.117,0.152,0.117,0.261c0,0.144-0.066,0.216-0.198,0.216h-2.268v-1.26h-0.072c-0.324,0.444-0.744,0.801-1.26,1.07
				c-0.516,0.271-1.104,0.405-1.764,0.405C172.983,101.914,172.335,101.698,171.795,101.266z M175.431,100.681
				c0.408-0.21,0.738-0.495,0.99-0.855s0.378-0.756,0.378-1.188v-1.44l-2.232,0.36c-0.708,0.12-1.254,0.321-1.638,0.603
				c-0.384,0.282-0.576,0.688-0.576,1.215c0,0.528,0.168,0.931,0.504,1.206c0.336,0.276,0.768,0.414,1.296,0.414
				C174.597,100.996,175.023,100.891,175.431,100.681z"/>
			<path fill="#2C2C2B" d="M185.997,93.742h-0.738c-0.192,0-0.288-0.12-0.288-0.36c0-0.168,0.057-0.29,0.171-0.368
				c0.114-0.078,0.267-0.117,0.459-0.117h3.042c0.144,0,0.216,0.071,0.216,0.216c0,0.229-0.162,0.372-0.486,0.432l-1.026,0.216
				l1.944,6.498c0.048,0.145,0.081,0.295,0.099,0.45c0.018,0.156,0.027,0.259,0.027,0.307h0.072c0-0.048,0.012-0.15,0.036-0.307
				c0.024-0.155,0.054-0.306,0.09-0.45l2.106-7.361h1.53l2.25,7.361c0.036,0.145,0.066,0.295,0.09,0.45
				c0.024,0.156,0.036,0.259,0.036,0.307h0.072c0-0.048,0.009-0.15,0.027-0.307c0.018-0.155,0.051-0.306,0.099-0.45l1.818-6.516
				h-1.134c-0.192,0-0.288-0.12-0.288-0.36c0-0.168,0.057-0.29,0.171-0.368c0.114-0.078,0.267-0.117,0.459-0.117h2.826
				c0.132,0,0.198,0.071,0.198,0.216c0,0.204-0.156,0.348-0.468,0.432l-0.756,0.216l-2.286,7.938h-1.8l-2.034-6.768
				c-0.048-0.192-0.087-0.405-0.117-0.64c-0.03-0.233-0.045-0.387-0.045-0.459h-0.072c0,0.072-0.012,0.226-0.036,0.459
				c-0.024,0.234-0.066,0.447-0.126,0.64l-1.926,6.768h-1.8L185.997,93.742z"/>
			<path fill="#2C2C2B" d="M202.292,101.365c-0.648-0.366-1.152-0.891-1.512-1.575c-0.36-0.684-0.54-1.487-0.54-2.412
				c0-1.428,0.372-2.562,1.116-3.401s1.758-1.261,3.042-1.261c1.164,0,2.082,0.343,2.754,1.026s1.008,1.596,1.008,2.736
				c0,0.372-0.079,0.75-0.234,1.134h-6.318c0,1.104,0.282,1.95,0.846,2.538c0.564,0.588,1.278,0.882,2.142,0.882
				c0.456,0,0.867-0.057,1.233-0.171c0.366-0.114,0.729-0.297,1.089-0.549c0.024-0.012,0.075-0.042,0.153-0.09
				s0.153-0.072,0.225-0.072c0.108,0,0.198,0.042,0.27,0.126c0.072,0.084,0.108,0.187,0.108,0.306c0,0.216-0.186,0.438-0.558,0.666
				c-0.744,0.444-1.602,0.666-2.574,0.666C203.69,101.914,202.94,101.731,202.292,101.365z M206.72,96.712
				c0.048-0.107,0.072-0.275,0.072-0.504c0-0.828-0.222-1.47-0.666-1.926c-0.444-0.456-1.032-0.684-1.764-0.684
				c-0.768,0-1.404,0.278-1.908,0.837c-0.504,0.558-0.786,1.316-0.846,2.276H206.72z"/>
			<path fill="#2C2C2B" d="M211.827,101.617c-0.678-0.198-1.275-0.453-1.791-0.765V89.764h-0.9c-0.192,0-0.288-0.12-0.288-0.36
				c0-0.168,0.057-0.291,0.171-0.369s0.267-0.117,0.459-0.117h1.872v5.112l0.054,0.036c0.36-0.444,0.789-0.78,1.287-1.008
				c0.498-0.229,1.041-0.343,1.629-0.343c1.14,0,2.058,0.391,2.754,1.171c0.696,0.779,1.044,1.943,1.044,3.491
				c0,1.501-0.402,2.632-1.206,3.394c-0.804,0.762-1.854,1.143-3.15,1.143C213.15,101.914,212.504,101.815,211.827,101.617z
				 M216.732,97.396c0-1.32-0.25-2.283-0.747-2.89c-0.498-0.605-1.173-0.908-2.025-0.908c-0.444,0-0.867,0.102-1.269,0.306
				c-0.402,0.204-0.723,0.477-0.963,0.819c-0.24,0.342-0.36,0.717-0.36,1.125v4.535c0.312,0.192,0.681,0.349,1.107,0.469
				s0.825,0.18,1.197,0.18C215.711,101.032,216.732,99.82,216.732,97.396z"/>
			<path fill="#2C2C2B" d="M225.039,105.568c-0.15-0.12-0.225-0.288-0.225-0.504c0-0.168,0.042-0.33,0.126-0.486
				c0.852,0,1.518-0.156,1.998-0.468c0.48-0.313,0.87-0.858,1.17-1.638l0.288-0.774l-3.204-7.956h-0.738
				c-0.192,0-0.288-0.12-0.288-0.36c0-0.168,0.057-0.29,0.171-0.368s0.267-0.117,0.459-0.117h3.042c0.144,0,0.216,0.071,0.216,0.216
				c0,0.108-0.045,0.201-0.135,0.279c-0.09,0.078-0.207,0.129-0.351,0.152l-0.954,0.216l2.376,6.049
				c0.036,0.084,0.057,0.188,0.063,0.314c0.006,0.126,0.009,0.207,0.009,0.243h0.072c0-0.036,0.006-0.12,0.018-0.252
				c0.012-0.132,0.03-0.234,0.054-0.306l2.358-6.066h-1.116c-0.192,0-0.288-0.12-0.288-0.36c0-0.323,0.209-0.485,0.63-0.485h2.826
				c0.132,0,0.198,0.071,0.198,0.216c0,0.192-0.162,0.336-0.486,0.432l-0.738,0.216l-3.384,8.694
				c-0.384,0.972-0.876,1.764-1.476,2.376s-1.308,0.918-2.124,0.918C225.377,105.748,225.188,105.688,225.039,105.568z"/>
			<path fill="#2C2C2B" d="M240.95,100.672c-0.774-0.827-1.161-1.949-1.161-3.365c0-0.937,0.174-1.752,0.522-2.448
				c0.348-0.696,0.834-1.227,1.458-1.593c0.624-0.366,1.35-0.55,2.178-0.55c0.588,0,1.17,0.108,1.746,0.324s1.014,0.468,1.314,0.756
				v1.603c0,0.072-0.024,0.129-0.072,0.171c-0.048,0.042-0.12,0.063-0.216,0.063c-0.12,0-0.216-0.038-0.288-0.116
				c-0.072-0.078-0.126-0.207-0.162-0.388l-0.162-0.882c-0.216-0.191-0.51-0.345-0.882-0.459c-0.372-0.114-0.75-0.171-1.134-0.171
				c-0.888,0-1.602,0.321-2.142,0.963c-0.54,0.643-0.81,1.551-0.81,2.728c0,1.176,0.279,2.091,0.837,2.744
				c0.558,0.654,1.293,0.981,2.205,0.981c0.815,0,1.554-0.234,2.214-0.702c0.024-0.012,0.072-0.045,0.144-0.099
				c0.072-0.055,0.144-0.081,0.216-0.081c0.108,0,0.198,0.042,0.27,0.126s0.108,0.187,0.108,0.306c0,0.229-0.198,0.456-0.594,0.685
				c-0.744,0.432-1.554,0.647-2.43,0.647C242.777,101.914,241.725,101.5,240.95,100.672z"/>
			<path fill="#2C2C2B" d="M249.473,100.69c-0.744-0.816-1.116-1.944-1.116-3.384c0-1.429,0.375-2.55,1.125-3.366
				c0.75-0.816,1.761-1.225,3.033-1.225c1.284,0,2.301,0.408,3.051,1.225c0.749,0.816,1.125,1.938,1.125,3.366
				c0,1.439-0.375,2.567-1.125,3.384c-0.75,0.816-1.767,1.224-3.051,1.224S250.217,101.507,249.473,100.69z M254.585,100.06
				c0.492-0.648,0.738-1.566,0.738-2.754c0-1.177-0.246-2.089-0.738-2.736c-0.492-0.648-1.176-0.972-2.052-0.972
				c-0.888,0-1.578,0.323-2.07,0.972c-0.492,0.647-0.738,1.56-0.738,2.736c0,1.188,0.246,2.105,0.738,2.754
				c0.492,0.647,1.182,0.972,2.07,0.972C253.409,101.032,254.093,100.708,254.585,100.06z"/>
			<path fill="#2C2C2B" d="M257.802,101.338c0-0.155,0.057-0.275,0.171-0.359c0.114-0.084,0.267-0.126,0.459-0.126h0.558v-7.11h-0.9
				c-0.192,0-0.288-0.12-0.288-0.36c0-0.168,0.057-0.29,0.171-0.368c0.114-0.078,0.267-0.117,0.459-0.117h1.836v1.26h0.054
				c1.02-0.96,2.07-1.44,3.15-1.44c0.852,0,1.554,0.25,2.106,0.747c0.552,0.498,0.828,1.174,0.828,2.025v5.364l0.864,0.197
				c0.324,0.072,0.486,0.217,0.486,0.433c0,0.144-0.072,0.216-0.216,0.216h-3.384c-0.192,0-0.288-0.12-0.288-0.36
				c0-0.155,0.057-0.275,0.171-0.359c0.114-0.084,0.267-0.126,0.459-0.126h0.558v-5.256c0-0.588-0.171-1.06-0.513-1.413
				c-0.342-0.354-0.831-0.531-1.467-0.531c-0.468,0-0.942,0.129-1.422,0.387c-0.48,0.259-0.918,0.609-1.314,1.053v5.761l0.864,0.197
				c0.168,0.036,0.291,0.088,0.369,0.153c0.078,0.066,0.117,0.159,0.117,0.279c0,0.144-0.072,0.216-0.216,0.216h-3.384
				C257.898,101.698,257.802,101.578,257.802,101.338z"/>
			<path fill="#2C2C2B" d="M269.584,100.69c-0.744-0.816-1.116-1.944-1.116-3.384c0-1.429,0.375-2.55,1.125-3.366
				c0.75-0.816,1.761-1.225,3.033-1.225c1.284,0,2.301,0.408,3.051,1.225c0.75,0.816,1.125,1.938,1.125,3.366
				c0,1.439-0.375,2.567-1.125,3.384c-0.75,0.816-1.767,1.224-3.051,1.224S270.329,101.507,269.584,100.69z M274.697,100.06
				c0.492-0.648,0.738-1.566,0.738-2.754c0-1.177-0.246-2.089-0.738-2.736c-0.492-0.648-1.176-0.972-2.052-0.972
				c-0.888,0-1.578,0.323-2.07,0.972c-0.492,0.647-0.738,1.56-0.738,2.736c0,1.188,0.246,2.105,0.738,2.754
				c0.492,0.647,1.182,0.972,2.07,0.972C273.521,101.032,274.205,100.708,274.697,100.06z"/>
			<path fill="#2C2C2B" d="M277.963,100.726l5.112-6.948h-3.96l-0.144,0.846c-0.036,0.192-0.09,0.33-0.162,0.414
				c-0.072,0.084-0.18,0.126-0.324,0.126c-0.084,0-0.153-0.023-0.207-0.072c-0.054-0.048-0.081-0.113-0.081-0.197v-1.998h6.48v0.972
				l-5.094,6.948h4.302l0.144-0.882c0.036-0.181,0.093-0.315,0.171-0.405c0.078-0.09,0.183-0.135,0.315-0.135
				c0.083,0,0.153,0.026,0.207,0.081c0.054,0.054,0.081,0.123,0.081,0.207v2.016h-6.84V100.726z"/>
			<path fill="#2C2C2B" d="M287.224,100.672c-0.774-0.827-1.161-1.949-1.161-3.365c0-0.937,0.174-1.752,0.522-2.448
				c0.348-0.696,0.834-1.227,1.458-1.593c0.624-0.366,1.35-0.55,2.178-0.55c0.588,0,1.17,0.108,1.746,0.324s1.014,0.468,1.314,0.756
				v1.603c0,0.072-0.024,0.129-0.072,0.171c-0.048,0.042-0.12,0.063-0.216,0.063c-0.12,0-0.216-0.038-0.288-0.116
				c-0.072-0.078-0.126-0.207-0.162-0.388l-0.162-0.882c-0.216-0.191-0.51-0.345-0.882-0.459c-0.372-0.114-0.75-0.171-1.134-0.171
				c-0.888,0-1.602,0.321-2.142,0.963c-0.54,0.643-0.81,1.551-0.81,2.728c0,1.176,0.279,2.091,0.837,2.744
				c0.558,0.654,1.293,0.981,2.205,0.981c0.815,0,1.554-0.234,2.214-0.702c0.024-0.012,0.072-0.045,0.144-0.099
				c0.072-0.055,0.144-0.081,0.216-0.081c0.108,0,0.198,0.042,0.27,0.126s0.108,0.187,0.108,0.306c0,0.229-0.198,0.456-0.594,0.685
				c-0.744,0.432-1.554,0.647-2.43,0.647C289.051,101.914,287.999,101.5,287.224,100.672z"/>
			<path fill="#2C2C2B" d="M295.587,101.266c-0.54-0.433-0.81-1.038-0.81-1.818c0-0.84,0.3-1.467,0.9-1.881s1.392-0.693,2.376-0.837
				l2.538-0.378V95.56c0-0.588-0.18-1.063-0.54-1.422c-0.36-0.36-0.864-0.54-1.512-0.54c-0.372,0-0.79,0.065-1.251,0.197
				c-0.462,0.133-0.843,0.295-1.143,0.486l-0.144,0.792c-0.06,0.349-0.216,0.522-0.468,0.522c-0.084,0-0.15-0.021-0.198-0.063
				c-0.048-0.042-0.072-0.099-0.072-0.171v-1.638c0.48-0.288,1.035-0.528,1.665-0.721c0.63-0.191,1.233-0.288,1.809-0.288
				c0.936,0,1.704,0.252,2.304,0.757c0.6,0.504,0.9,1.206,0.9,2.105v5.292l0.666,0.18c0.168,0.049,0.291,0.105,0.369,0.172
				c0.078,0.065,0.117,0.152,0.117,0.261c0,0.144-0.066,0.216-0.199,0.216h-2.268v-1.26h-0.072c-0.324,0.444-0.744,0.801-1.26,1.07
				c-0.516,0.271-1.104,0.405-1.764,0.405C296.775,101.914,296.127,101.698,295.587,101.266z M299.223,100.681
				c0.408-0.21,0.738-0.495,0.99-0.855s0.378-0.756,0.378-1.188v-1.44l-2.232,0.36c-0.708,0.12-1.254,0.321-1.638,0.603
				c-0.384,0.282-0.576,0.688-0.576,1.215c0,0.528,0.168,0.931,0.504,1.206c0.336,0.276,0.768,0.414,1.296,0.414
				C298.389,100.996,298.815,100.891,299.223,100.681z"/>
			<path fill="#2C2C2B" d="M309.537,101.338c0-0.155,0.057-0.275,0.171-0.359c0.113-0.084,0.267-0.126,0.459-0.126h0.558v-7.11
				h-0.899c-0.192,0-0.288-0.12-0.288-0.36c0-0.168,0.057-0.29,0.171-0.368c0.113-0.078,0.267-0.117,0.459-0.117h1.836v1.224h0.054
				c0.468-0.42,0.945-0.759,1.432-1.017c0.485-0.258,1.005-0.388,1.557-0.388s1.044,0.13,1.476,0.388
				c0.433,0.258,0.744,0.633,0.937,1.125c0.492-0.456,0.99-0.822,1.494-1.099c0.504-0.275,1.056-0.414,1.655-0.414
				c0.769,0,1.404,0.234,1.908,0.702c0.504,0.469,0.756,1.134,0.756,1.998v5.454l0.828,0.18c0.313,0.061,0.468,0.205,0.468,0.433
				c0,0.144-0.071,0.216-0.216,0.216h-3.33c-0.191,0-0.288-0.12-0.288-0.36c0-0.155,0.058-0.275,0.172-0.359
				c0.113-0.084,0.267-0.126,0.459-0.126h0.558v-5.328c0-0.612-0.153-1.077-0.459-1.396c-0.306-0.317-0.724-0.477-1.251-0.477
				c-0.444,0-0.882,0.126-1.314,0.378c-0.432,0.252-0.84,0.576-1.224,0.972v5.868l0.846,0.18c0.313,0.061,0.469,0.205,0.469,0.433
				c0,0.144-0.072,0.216-0.217,0.216h-3.33c-0.191,0-0.287-0.12-0.287-0.36c0-0.155,0.057-0.275,0.171-0.359
				c0.113-0.084,0.267-0.126,0.459-0.126h0.54v-5.328c0-0.612-0.15-1.077-0.45-1.396c-0.3-0.317-0.714-0.477-1.242-0.477
				c-0.444,0-0.885,0.126-1.323,0.378c-0.438,0.252-0.849,0.582-1.232,0.99v5.85l0.863,0.18c0.3,0.061,0.45,0.205,0.45,0.433
				c0,0.144-0.065,0.216-0.198,0.216h-3.365C309.633,101.698,309.537,101.578,309.537,101.338z"/>
			<path fill="#2C2C2B" d="M326.385,101.266c-0.54-0.433-0.81-1.038-0.81-1.818c0-0.84,0.3-1.467,0.9-1.881
				c0.6-0.414,1.392-0.693,2.376-0.837l2.538-0.378V95.56c0-0.588-0.181-1.063-0.54-1.422c-0.36-0.36-0.864-0.54-1.513-0.54
				c-0.372,0-0.789,0.065-1.251,0.197c-0.462,0.133-0.843,0.295-1.143,0.486l-0.145,0.792c-0.06,0.349-0.216,0.522-0.468,0.522
				c-0.084,0-0.15-0.021-0.198-0.063s-0.071-0.099-0.071-0.171v-1.638c0.479-0.288,1.035-0.528,1.665-0.721
				c0.63-0.191,1.232-0.288,1.809-0.288c0.937,0,1.704,0.252,2.304,0.757c0.601,0.504,0.9,1.206,0.9,2.105v5.292l0.666,0.18
				c0.168,0.049,0.291,0.105,0.369,0.172c0.078,0.065,0.117,0.152,0.117,0.261c0,0.144-0.066,0.216-0.198,0.216h-2.269v-1.26h-0.071
				c-0.324,0.444-0.744,0.801-1.261,1.07c-0.516,0.271-1.104,0.405-1.764,0.405C327.573,101.914,326.925,101.698,326.385,101.266z
				 M330.021,100.681c0.407-0.21,0.737-0.495,0.989-0.855c0.253-0.36,0.379-0.756,0.379-1.188v-1.44l-2.232,0.36
				c-0.708,0.12-1.254,0.321-1.638,0.603c-0.385,0.282-0.576,0.688-0.576,1.215c0,0.528,0.168,0.931,0.504,1.206
				c0.336,0.276,0.768,0.414,1.296,0.414C329.188,100.996,329.613,100.891,330.021,100.681z M328.383,91.114l1.566-2.628l1.08,0.702
				l-1.836,2.448L328.383,91.114z"/>
			<path fill="#2C2C2B" d="M336.557,101.653c-0.612-0.174-1.087-0.405-1.422-0.693v-1.638c0-0.168,0.09-0.252,0.27-0.252
				c0.228,0,0.378,0.174,0.45,0.521l0.162,0.811c0.228,0.204,0.555,0.357,0.98,0.459s0.849,0.153,1.27,0.153
				c0.624,0,1.131-0.103,1.521-0.307s0.585-0.54,0.585-1.008c0-0.324-0.078-0.585-0.233-0.783c-0.156-0.197-0.394-0.381-0.711-0.549
				c-0.318-0.168-0.831-0.396-1.539-0.684c-0.925-0.396-1.603-0.789-2.034-1.18c-0.433-0.39-0.648-0.891-0.648-1.503
				c0-0.756,0.303-1.325,0.909-1.71c0.605-0.384,1.341-0.576,2.205-0.576c0.588,0,1.17,0.108,1.746,0.324s1.014,0.468,1.313,0.756
				v1.584c0,0.156-0.09,0.234-0.27,0.234c-0.12,0-0.216-0.039-0.288-0.117s-0.126-0.207-0.162-0.387l-0.162-0.864
				c-0.216-0.191-0.513-0.345-0.891-0.459s-0.759-0.171-1.144-0.171c-0.539,0-0.989,0.103-1.35,0.306
				c-0.36,0.204-0.54,0.522-0.54,0.954c0,0.288,0.087,0.531,0.261,0.729s0.405,0.372,0.693,0.521
				c0.288,0.15,0.822,0.399,1.602,0.747c0.948,0.408,1.62,0.805,2.017,1.188c0.396,0.384,0.594,0.912,0.594,1.584
				c0,0.78-0.324,1.353-0.972,1.719c-0.648,0.366-1.446,0.549-2.395,0.549C337.774,101.914,337.168,101.827,336.557,101.653z"/>
			<path fill="#2C2C2B" d="M349.895,101.653c-0.612-0.174-1.087-0.405-1.422-0.693v-1.638c0-0.168,0.09-0.252,0.27-0.252
				c0.228,0,0.378,0.174,0.45,0.521l0.162,0.811c0.228,0.204,0.555,0.357,0.98,0.459s0.849,0.153,1.27,0.153
				c0.624,0,1.131-0.103,1.521-0.307s0.585-0.54,0.585-1.008c0-0.324-0.078-0.585-0.233-0.783c-0.156-0.197-0.394-0.381-0.711-0.549
				c-0.318-0.168-0.831-0.396-1.539-0.684c-0.925-0.396-1.603-0.789-2.034-1.18c-0.433-0.39-0.648-0.891-0.648-1.503
				c0-0.756,0.303-1.325,0.909-1.71c0.605-0.384,1.341-0.576,2.205-0.576c0.588,0,1.17,0.108,1.746,0.324s1.014,0.468,1.313,0.756
				v1.584c0,0.156-0.09,0.234-0.27,0.234c-0.12,0-0.216-0.039-0.288-0.117s-0.126-0.207-0.162-0.387l-0.162-0.864
				c-0.216-0.191-0.513-0.345-0.891-0.459s-0.759-0.171-1.144-0.171c-0.539,0-0.989,0.103-1.35,0.306
				c-0.36,0.204-0.54,0.522-0.54,0.954c0,0.288,0.087,0.531,0.261,0.729s0.405,0.372,0.693,0.521
				c0.288,0.15,0.822,0.399,1.602,0.747c0.948,0.408,1.62,0.805,2.017,1.188c0.396,0.384,0.594,0.912,0.594,1.584
				c0,0.78-0.324,1.353-0.972,1.719c-0.648,0.366-1.446,0.549-2.395,0.549C351.112,101.914,350.506,101.827,349.895,101.653z"/>
			<path fill="#2C2C2B" d="M357.544,100.69c-0.744-0.816-1.116-1.944-1.116-3.384c0-1.429,0.375-2.55,1.125-3.366
				s1.761-1.225,3.033-1.225c1.284,0,2.301,0.408,3.051,1.225s1.125,1.938,1.125,3.366c0,1.439-0.375,2.567-1.125,3.384
				s-1.767,1.224-3.051,1.224S358.288,101.507,357.544,100.69z M362.656,100.06c0.491-0.648,0.737-1.566,0.737-2.754
				c0-1.177-0.246-2.089-0.737-2.736c-0.492-0.648-1.177-0.972-2.052-0.972c-0.889,0-1.578,0.323-2.07,0.972
				c-0.492,0.647-0.738,1.56-0.738,2.736c0,1.188,0.246,2.105,0.738,2.754c0.492,0.647,1.182,0.972,2.07,0.972
				C361.479,101.032,362.164,100.708,362.656,100.06z"/>
			<path fill="#2C2C2B" d="M368.505,101.617c-0.679-0.198-1.275-0.453-1.791-0.765V89.764h-0.9c-0.192,0-0.288-0.12-0.288-0.36
				c0-0.168,0.057-0.291,0.171-0.369s0.267-0.117,0.459-0.117h1.872v5.112l0.054,0.036c0.36-0.444,0.789-0.78,1.287-1.008
				c0.498-0.229,1.041-0.343,1.629-0.343c1.141,0,2.059,0.391,2.754,1.171c0.696,0.779,1.045,1.943,1.045,3.491
				c0,1.501-0.402,2.632-1.206,3.394c-0.805,0.762-1.854,1.143-3.15,1.143C369.827,101.914,369.183,101.815,368.505,101.617z
				 M373.409,97.396c0-1.32-0.249-2.283-0.747-2.89c-0.498-0.605-1.173-0.908-2.024-0.908c-0.444,0-0.867,0.102-1.27,0.306
				s-0.723,0.477-0.963,0.819c-0.24,0.342-0.359,0.717-0.359,1.125v4.535c0.312,0.192,0.681,0.349,1.106,0.469
				s0.825,0.18,1.197,0.18C372.39,101.032,373.409,99.82,373.409,97.396z"/>
			<path fill="#2C2C2B" d="M375.958,101.338c0-0.155,0.057-0.275,0.171-0.359c0.113-0.084,0.267-0.126,0.459-0.126h0.558v-7.11
				h-0.899c-0.192,0-0.288-0.12-0.288-0.36c0-0.168,0.057-0.29,0.171-0.368c0.113-0.078,0.267-0.117,0.459-0.117h1.836v1.782h0.054
				c0.456-0.553,0.96-1.018,1.513-1.396c0.552-0.378,1.056-0.567,1.512-0.567c0.252,0,0.443,0.063,0.576,0.189
				c0.132,0.126,0.197,0.297,0.197,0.513c0,0.12-0.021,0.237-0.063,0.352s-0.1,0.207-0.171,0.278c-1.26,0-2.442,0.534-3.546,1.603
				v5.202l0.863,0.197c0.168,0.036,0.291,0.088,0.369,0.153c0.078,0.066,0.117,0.159,0.117,0.279c0,0.144-0.072,0.216-0.216,0.216
				h-3.384C376.054,101.698,375.958,101.578,375.958,101.338z"/>
			<path fill="#2C2C2B" d="M385.001,101.365c-0.648-0.366-1.152-0.891-1.512-1.575c-0.36-0.684-0.54-1.487-0.54-2.412
				c0-1.428,0.371-2.562,1.115-3.401s1.758-1.261,3.043-1.261c1.163,0,2.081,0.343,2.754,1.026c0.672,0.684,1.008,1.596,1.008,2.736
				c0,0.372-0.078,0.75-0.234,1.134h-6.317c0,1.104,0.281,1.95,0.846,2.538c0.563,0.588,1.278,0.882,2.142,0.882
				c0.456,0,0.867-0.057,1.233-0.171s0.729-0.297,1.089-0.549c0.023-0.012,0.075-0.042,0.153-0.09
				c0.077-0.048,0.152-0.072,0.225-0.072c0.108,0,0.198,0.042,0.271,0.126c0.071,0.084,0.107,0.187,0.107,0.306
				c0,0.216-0.187,0.438-0.558,0.666c-0.744,0.444-1.603,0.666-2.574,0.666C386.398,101.914,385.649,101.731,385.001,101.365z
				 M389.429,96.712c0.048-0.107,0.072-0.275,0.072-0.504c0-0.828-0.223-1.47-0.666-1.926c-0.444-0.456-1.032-0.684-1.764-0.684
				c-0.769,0-1.404,0.278-1.908,0.837c-0.504,0.558-0.786,1.316-0.846,2.276H389.429z"/>
			<path fill="#2C2C2B" d="M397.817,101.32c0-0.156,0.06-0.279,0.18-0.369s0.282-0.135,0.486-0.135h0.576v-10.71l-0.595-0.09
				c-0.239-0.072-0.413-0.145-0.521-0.217c-0.108-0.071-0.162-0.174-0.162-0.306c0-0.096,0.024-0.171,0.072-0.225
				c0.048-0.055,0.107-0.081,0.18-0.081h5.185c1.235,0,2.214,0.276,2.934,0.828s1.08,1.392,1.08,2.52c0,1.116-0.36,1.944-1.08,2.484
				s-1.698,0.81-2.934,0.81h-0.973l4.752,5.004l0.9,0.181c0.336,0.071,0.504,0.222,0.504,0.449c0,0.156-0.066,0.234-0.198,0.234
				h-2.376l-5.328-5.832v4.932l0.882,0.217c0.181,0.048,0.31,0.104,0.388,0.171c0.078,0.065,0.117,0.159,0.117,0.278
				c0,0.156-0.072,0.234-0.217,0.234h-3.546C397.919,101.698,397.817,101.572,397.817,101.32z M403.146,94.93
				c0.852,0,1.5-0.207,1.943-0.621c0.444-0.414,0.666-1.005,0.666-1.773c0-0.768-0.222-1.361-0.666-1.782
				c-0.443-0.42-1.092-0.63-1.943-0.63h-2.646v4.807H403.146z"/>
			<path fill="#2C2C2B" d="M411.053,101.365c-0.648-0.366-1.152-0.891-1.512-1.575c-0.36-0.684-0.54-1.487-0.54-2.412
				c0-1.428,0.371-2.562,1.115-3.401s1.758-1.261,3.043-1.261c1.163,0,2.081,0.343,2.754,1.026c0.672,0.684,1.008,1.596,1.008,2.736
				c0,0.372-0.078,0.75-0.234,1.134h-6.317c0,1.104,0.281,1.95,0.846,2.538c0.563,0.588,1.278,0.882,2.142,0.882
				c0.456,0,0.867-0.057,1.233-0.171s0.729-0.297,1.089-0.549c0.023-0.012,0.075-0.042,0.153-0.09
				c0.077-0.048,0.152-0.072,0.225-0.072c0.108,0,0.198,0.042,0.271,0.126c0.071,0.084,0.107,0.187,0.107,0.306
				c0,0.216-0.187,0.438-0.558,0.666c-0.744,0.444-1.603,0.666-2.574,0.666C412.45,101.914,411.701,101.731,411.053,101.365z
				 M415.48,96.712c0.048-0.107,0.072-0.275,0.072-0.504c0-0.828-0.223-1.47-0.666-1.926c-0.444-0.456-1.032-0.684-1.764-0.684
				c-0.769,0-1.404,0.278-1.908,0.837c-0.504,0.558-0.786,1.316-0.846,2.276H415.48z"/>
			<path fill="#2C2C2B" d="M418.586,93.742h-0.738c-0.192,0-0.288-0.12-0.288-0.36c0-0.168,0.057-0.29,0.171-0.368
				s0.268-0.117,0.459-0.117h3.042c0.145,0,0.216,0.071,0.216,0.216c0,0.108-0.045,0.201-0.135,0.279s-0.207,0.129-0.351,0.152
				l-0.954,0.216l2.268,6.589c0.048,0.12,0.087,0.258,0.117,0.414c0.03,0.155,0.051,0.258,0.063,0.306h0.071
				c0-0.048,0.016-0.15,0.045-0.306c0.03-0.156,0.069-0.294,0.117-0.414l2.34-6.606h-1.115c-0.192,0-0.288-0.12-0.288-0.36
				c0-0.168,0.057-0.29,0.171-0.368c0.113-0.078,0.267-0.117,0.459-0.117h2.826c0.132,0,0.197,0.071,0.197,0.216
				c0,0.204-0.155,0.348-0.468,0.432l-0.756,0.216l-2.826,7.938h-1.817L418.586,93.742z"/>
			<path fill="#2C2C2B" d="M428.761,100.69c-0.744-0.816-1.116-1.944-1.116-3.384c0-1.429,0.375-2.55,1.125-3.366
				s1.761-1.225,3.033-1.225c1.284,0,2.301,0.408,3.051,1.225s1.125,1.938,1.125,3.366c0,1.439-0.375,2.567-1.125,3.384
				s-1.767,1.224-3.051,1.224S429.505,101.507,428.761,100.69z M433.873,100.06c0.491-0.648,0.737-1.566,0.737-2.754
				c0-1.177-0.246-2.089-0.737-2.736c-0.492-0.648-1.177-0.972-2.052-0.972c-0.889,0-1.578,0.323-2.07,0.972
				c-0.492,0.647-0.738,1.56-0.738,2.736c0,1.188,0.246,2.105,0.738,2.754c0.492,0.647,1.182,0.972,2.07,0.972
				C432.696,101.032,433.381,100.708,433.873,100.06z"/>
			<path fill="#2C2C2B" d="M437.082,101.338c0-0.155,0.057-0.275,0.171-0.359s0.267-0.126,0.459-0.126h0.558V89.764h-0.899
				c-0.192,0-0.288-0.12-0.288-0.36c0-0.168,0.057-0.291,0.171-0.369s0.267-0.117,0.459-0.117h1.908v11.935l0.864,0.197
				c0.167,0.036,0.29,0.088,0.368,0.153c0.078,0.066,0.117,0.159,0.117,0.279c0,0.144-0.072,0.216-0.216,0.216h-3.384
				C437.178,101.698,437.082,101.578,437.082,101.338z"/>
			<path fill="#2C2C2B" d="M443.45,101.167c-0.552-0.498-0.828-1.179-0.828-2.043v-5.382h-0.899c-0.192,0-0.288-0.12-0.288-0.36
				c0-0.168,0.057-0.29,0.171-0.368s0.267-0.117,0.459-0.117h1.908v6.12c0,0.588,0.171,1.062,0.513,1.422
				c0.342,0.359,0.831,0.54,1.467,0.54c0.468,0,0.939-0.132,1.413-0.396c0.474-0.264,0.909-0.618,1.305-1.062v-5.778h-0.899
				c-0.192,0-0.288-0.12-0.288-0.36c0-0.168,0.057-0.29,0.171-0.368s0.267-0.117,0.459-0.117h1.908v7.956l0.72,0.197
				c0.168,0.049,0.291,0.105,0.369,0.172c0.078,0.065,0.117,0.152,0.117,0.261c0,0.144-0.072,0.216-0.216,0.216h-2.269v-1.224
				h-0.054c-1.021,0.96-2.064,1.439-3.132,1.439C444.704,101.914,444.002,101.665,443.45,101.167z"/>
			<path fill="#2C2C2B" d="M454.058,101.32c-0.433-0.396-0.648-0.942-0.648-1.638V93.85h-1.224c-0.097,0-0.171-0.036-0.226-0.108
				c-0.054-0.072-0.08-0.168-0.08-0.288c0-0.155,0.057-0.281,0.171-0.378c0.113-0.096,0.267-0.144,0.459-0.144h0.918l0.233-1.908
				h1.099v1.908h2.735c0.145,0,0.217,0.071,0.217,0.216c0,0.144-0.061,0.252-0.181,0.324c-0.12,0.071-0.306,0.12-0.558,0.144
				l-2.214,0.234v5.922c0,0.408,0.104,0.717,0.314,0.927s0.495,0.315,0.855,0.315c0.252,0,0.474-0.036,0.666-0.108
				c0.191-0.072,0.378-0.191,0.558-0.36c0.145-0.119,0.258-0.18,0.342-0.18c0.108,0,0.198,0.033,0.271,0.099
				c0.072,0.066,0.107,0.159,0.107,0.279c0,0.229-0.18,0.462-0.54,0.702c-0.443,0.312-0.996,0.468-1.655,0.468
				C455.029,101.914,454.489,101.716,454.058,101.32z"/>
			<path fill="#2C2C2B" d="M459.216,101.338c0-0.155,0.057-0.275,0.171-0.359c0.113-0.084,0.267-0.126,0.459-0.126h0.558v-7.11
				h-0.899c-0.192,0-0.288-0.12-0.288-0.36c0-0.168,0.057-0.29,0.171-0.368c0.113-0.078,0.267-0.117,0.459-0.117h1.836v1.782h0.054
				c0.456-0.553,0.96-1.018,1.513-1.396c0.552-0.378,1.056-0.567,1.512-0.567c0.252,0,0.443,0.063,0.576,0.189
				c0.132,0.126,0.197,0.297,0.197,0.513c0,0.12-0.021,0.237-0.063,0.352s-0.1,0.207-0.171,0.278c-1.26,0-2.442,0.534-3.546,1.603
				v5.202l0.863,0.197c0.168,0.036,0.291,0.088,0.369,0.153c0.078,0.066,0.117,0.159,0.117,0.279c0,0.144-0.072,0.216-0.216,0.216
				h-3.384C459.312,101.698,459.216,101.578,459.216,101.338z"/>
			<path fill="#2C2C2B" d="M467.29,101.266c-0.54-0.433-0.81-1.038-0.81-1.818c0-0.84,0.3-1.467,0.9-1.881
				c0.6-0.414,1.392-0.693,2.376-0.837l2.538-0.378V95.56c0-0.588-0.181-1.063-0.54-1.422c-0.36-0.36-0.864-0.54-1.513-0.54
				c-0.372,0-0.789,0.065-1.251,0.197c-0.462,0.133-0.843,0.295-1.143,0.486l-0.145,0.792c-0.06,0.349-0.216,0.522-0.468,0.522
				c-0.084,0-0.15-0.021-0.198-0.063s-0.071-0.099-0.071-0.171v-1.638c0.479-0.288,1.035-0.528,1.665-0.721
				c0.63-0.191,1.232-0.288,1.809-0.288c0.937,0,1.704,0.252,2.304,0.757c0.601,0.504,0.9,1.206,0.9,2.105v5.292l0.666,0.18
				c0.168,0.049,0.291,0.105,0.369,0.172c0.078,0.065,0.117,0.152,0.117,0.261c0,0.144-0.066,0.216-0.198,0.216h-2.269v-1.26h-0.071
				c-0.324,0.444-0.744,0.801-1.261,1.07c-0.516,0.271-1.104,0.405-1.764,0.405C468.479,101.914,467.83,101.698,467.29,101.266z
				 M470.927,100.681c0.407-0.21,0.737-0.495,0.989-0.855c0.253-0.36,0.379-0.756,0.379-1.188v-1.44l-2.232,0.36
				c-0.708,0.12-1.254,0.321-1.638,0.603c-0.385,0.282-0.576,0.688-0.576,1.215c0,0.528,0.168,0.931,0.504,1.206
				c0.336,0.276,0.768,0.414,1.296,0.414C470.093,100.996,470.519,100.891,470.927,100.681z"/>
			<path fill="#2C2C2B" d="M477.577,101.419c-0.601-0.33-1.077-0.834-1.431-1.512c-0.354-0.678-0.531-1.521-0.531-2.529
				c0-0.936,0.177-1.758,0.531-2.466c0.354-0.708,0.843-1.251,1.467-1.629s1.332-0.567,2.124-0.567c0.947,0,1.836,0.276,2.664,0.828
				v-3.779h-0.9c-0.192,0-0.288-0.12-0.288-0.36c0-0.324,0.21-0.486,0.63-0.486h1.872v11.935l0.721,0.197
				c0.167,0.049,0.29,0.105,0.368,0.172c0.078,0.065,0.117,0.152,0.117,0.261c0,0.144-0.065,0.216-0.198,0.216h-2.268v-1.224h-0.072
				c-0.288,0.432-0.663,0.78-1.125,1.044s-1.022,0.396-1.683,0.396C478.843,101.914,478.177,101.749,477.577,101.419z
				 M481.654,100.357c0.485-0.45,0.729-1.023,0.729-1.719v-4.122c-0.708-0.612-1.506-0.918-2.394-0.918
				c-0.564,0-1.071,0.144-1.521,0.432c-0.449,0.288-0.81,0.714-1.08,1.278c-0.27,0.563-0.404,1.254-0.404,2.069
				c0,1.152,0.249,2.05,0.747,2.691c0.497,0.642,1.221,0.963,2.169,0.963C480.583,101.032,481.168,100.807,481.654,100.357z"/>
			<path fill="#2C2C2B" d="M486.247,101.338c0-0.155,0.057-0.275,0.171-0.359c0.113-0.084,0.267-0.126,0.459-0.126h0.576v-7.11
				h-0.919c-0.191,0-0.287-0.12-0.287-0.36c0-0.168,0.057-0.29,0.171-0.368c0.113-0.078,0.267-0.117,0.459-0.117h1.926v7.956
				l0.846,0.197c0.168,0.036,0.291,0.088,0.369,0.153c0.078,0.066,0.117,0.159,0.117,0.279c0,0.144-0.072,0.216-0.216,0.216h-3.385
				C486.343,101.698,486.247,101.578,486.247,101.338z M487.39,91.177c-0.187-0.173-0.279-0.41-0.279-0.711
				c0-0.3,0.093-0.536,0.279-0.711c0.186-0.174,0.417-0.261,0.693-0.261c0.275,0,0.51,0.087,0.701,0.261
				c0.192,0.175,0.288,0.411,0.288,0.711c0,0.301-0.096,0.538-0.288,0.711c-0.191,0.175-0.426,0.262-0.701,0.262
				C487.807,91.438,487.575,91.351,487.39,91.177z"/>
			<path fill="#2C2C2B" d="M491.414,101.338c0-0.155,0.057-0.275,0.171-0.359c0.113-0.084,0.267-0.126,0.459-0.126h0.558v-7.11
				h-0.899c-0.192,0-0.288-0.12-0.288-0.36c0-0.168,0.057-0.29,0.171-0.368c0.113-0.078,0.267-0.117,0.459-0.117h1.836v1.26h0.054
				c1.021-0.96,2.07-1.44,3.15-1.44c0.852,0,1.554,0.25,2.105,0.747c0.552,0.498,0.828,1.174,0.828,2.025v5.364l0.864,0.197
				c0.324,0.072,0.486,0.217,0.486,0.433c0,0.144-0.072,0.216-0.217,0.216h-3.384c-0.191,0-0.288-0.12-0.288-0.36
				c0-0.155,0.057-0.275,0.171-0.359s0.268-0.126,0.459-0.126h0.559v-5.256c0-0.588-0.171-1.06-0.513-1.413
				c-0.343-0.354-0.832-0.531-1.468-0.531c-0.468,0-0.941,0.129-1.422,0.387c-0.479,0.259-0.918,0.609-1.313,1.053v5.761
				l0.863,0.197c0.168,0.036,0.291,0.088,0.369,0.153c0.078,0.066,0.117,0.159,0.117,0.279c0,0.144-0.072,0.216-0.216,0.216h-3.384
				C491.51,101.698,491.414,101.578,491.414,101.338z"/>
			<path fill="#2C2C2B" d="M504.754,105.649c-0.504-0.126-0.942-0.297-1.313-0.513c-0.192-0.12-0.34-0.231-0.441-0.333
				c-0.102-0.103-0.153-0.22-0.153-0.352s0.036-0.234,0.108-0.306c0.072-0.072,0.156-0.108,0.252-0.108
				c0.06,0,0.129,0.021,0.207,0.063c0.078,0.042,0.135,0.074,0.171,0.099c0.384,0.24,0.807,0.423,1.27,0.549
				c0.461,0.126,0.927,0.189,1.395,0.189c0.876,0,1.539-0.21,1.989-0.63c0.45-0.421,0.675-1.044,0.675-1.872v-1.908h-0.072
				c-0.3,0.42-0.684,0.756-1.151,1.008c-0.469,0.252-1.026,0.378-1.675,0.378c-0.72,0-1.38-0.165-1.979-0.495
				c-0.601-0.33-1.077-0.834-1.431-1.512c-0.354-0.678-0.531-1.521-0.531-2.529c0-1.008,0.198-1.862,0.594-2.564
				c0.396-0.702,0.927-1.227,1.593-1.575c0.666-0.348,1.413-0.522,2.241-0.522c0.648,0,1.311,0.126,1.989,0.379
				c0.678,0.252,1.251,0.575,1.719,0.972v8.172c0,1.14-0.333,2.025-0.999,2.655s-1.641,0.944-2.925,0.944
				C505.768,105.838,505.258,105.775,504.754,105.649z M507.58,100.726c0.384-0.204,0.693-0.489,0.927-0.855
				c0.234-0.366,0.352-0.776,0.352-1.232v-4.284c-0.324-0.24-0.696-0.426-1.116-0.559c-0.42-0.132-0.834-0.197-1.242-0.197
				c-0.564,0-1.077,0.141-1.539,0.423s-0.831,0.708-1.106,1.277c-0.276,0.57-0.414,1.264-0.414,2.079
				c0,1.152,0.252,2.05,0.756,2.691s1.218,0.963,2.142,0.963C506.782,101.032,507.196,100.93,507.58,100.726z"/>
		</g>
	</g>
</g>
<g id="grid" display="none">
</g>
</svg>
