<?xml version="1.0" encoding="utf-8"?>
<!-- Generator: Adobe Illustrator 17.0.0, SVG Export Plug-In . SVG Version: 6.00 Build 0)  -->
<!DOCTYPE svg PUBLIC "-//W3C//DTD SVG 1.1//EN" "http://www.w3.org/Graphics/SVG/1.1/DTD/svg11.dtd">
<svg version="1.1" xmlns="http://www.w3.org/2000/svg" xmlns:xlink="http://www.w3.org/1999/xlink" x="0px" y="0px" width="50px"
	 height="50px" viewBox="0 0 50 50" enable-background="new 0 0 50 50" xml:space="preserve">
<g id="imgs">
</g>
<g id="content">
	<g>
		<g>
			<g>
				<g>
					<g>
						<path fill="#2C2C2B" d="M7.292,34.375C3.271,34.375,0,31.104,0,27.083c0-0.576,0.466-1.042,1.042-1.042h12.5
							c0.575,0,1.042,0.466,1.042,1.042C14.583,31.104,11.312,34.375,7.292,34.375z M2.188,28.125
							c0.484,2.374,2.588,4.167,5.104,4.167s4.62-1.792,5.104-4.167H2.188z"/>
					</g>
					<g>
						<path fill="#2C2C2B" d="M12.649,27.619l-5.357-8.928l-5.357,8.928l-1.786-1.072l6.25-10.417c0.376-0.627,1.41-0.627,1.786,0
							l6.25,10.417L12.649,27.619z"/>
					</g>
					<g>
						<path fill="#2C2C2B" d="M30.208,34.375c-4.021,0-7.292-3.271-7.292-7.292c0-0.576,0.466-1.042,1.042-1.042h12.5
							c0.575,0,1.042,0.466,1.042,1.042C37.5,31.104,34.229,34.375,30.208,34.375z M25.105,28.125
							c0.484,2.374,2.588,4.167,5.104,4.167s4.62-1.792,5.104-4.167H25.105z"/>
					</g>
					<g>
						<path fill="#2C2C2B" d="M35.565,27.619l-5.357-8.928l-5.357,8.928l-1.786-1.072l6.25-10.417c0.376-0.627,1.41-0.627,1.786,0
							l6.25,10.417L35.565,27.619z"/>
					</g>
				</g>
				<g>
					<rect x="7.292" y="15.625" fill="#2C2C2B" width="22.917" height="2.083"/>
				</g>
				<g>
					<path fill="#2C2C2B" d="M18.75,13.542c-1.723,0-3.125-1.402-3.125-3.125s1.402-3.125,3.125-3.125s3.125,1.402,3.125,3.125
						S20.473,13.542,18.75,13.542z M18.75,9.375c-0.574,0-1.042,0.467-1.042,1.042s0.467,1.042,1.042,1.042s1.042-0.467,1.042-1.042
						S19.324,9.375,18.75,9.375z"/>
				</g>
				<g>
					<rect x="17.708" y="12.5" fill="#2C2C2B" width="2.083" height="25"/>
				</g>
				<g>
					<path fill="#2C2C2B" d="M27.083,42.708H10.417c-0.575,0-1.042-0.466-1.042-1.042v-2.083c0-1.723,1.402-3.125,3.125-3.125H25
						c1.723,0,3.125,1.402,3.125,3.125v2.083C28.125,42.242,27.659,42.708,27.083,42.708z M11.458,40.625h14.583v-1.042
						c0-0.575-0.467-1.042-1.042-1.042H12.5c-0.574,0-1.042,0.467-1.042,1.042V40.625z"/>
				</g>
			</g>
		</g>
		<g>
			<g>
				<g>
					<g>
						<path fill="#2C2C2B" d="M44.792,50c-2.872,0-5.208-2.337-5.208-5.208V2.083H8.333v11.458H6.25v-12.5
							C6.25,0.466,6.716,0,7.292,0h33.333c0.575,0,1.042,0.466,1.042,1.042v43.75c0,1.723,1.402,3.125,3.125,3.125
							c1.723,0,3.125-1.402,3.125-3.125V15.625H43.75v-2.083h5.208c0.575,0,1.042,0.466,1.042,1.042v30.208
							C50,47.663,47.663,50,44.792,50z"/>
					</g>
					<g>
						<path fill="#2C2C2B" d="M44.792,50H11.458c-2.872,0-5.208-2.337-5.208-5.208h2.083c0,1.723,1.402,3.125,3.125,3.125h33.333V50
							z"/>
					</g>
				</g>
			</g>
		</g>
		<g>
			<path fill="#2C2C2B" d="M37.5,9.375h-2.083V7.292c0-0.575-0.467-1.042-1.042-1.042h-2.083V4.167h2.083
				c1.723,0,3.125,1.402,3.125,3.125V9.375z"/>
		</g>
		<g>
			<rect x="28.125" y="4.167" fill="#2C2C2B" width="2.083" height="2.083"/>
		</g>
	</g>
</g>
<g id="grid" display="none">
</g>
</svg>
