<?xml version="1.0" encoding="utf-8"?>
<!-- Generator: Adobe Illustrator 17.0.0, SVG Export Plug-In . SVG Version: 6.00 Build 0)  -->
<!DOCTYPE svg PUBLIC "-//W3C//DTD SVG 1.1//EN" "http://www.w3.org/Graphics/SVG/1.1/DTD/svg11.dtd">
<svg version="1.1" xmlns="http://www.w3.org/2000/svg" xmlns:xlink="http://www.w3.org/1999/xlink" x="0px" y="0px"
	 width="84.768px" height="29.415px" viewBox="0 0 84.768 29.415" enable-background="new 0 0 84.768 29.415" xml:space="preserve">
<g id="imgs">
</g>
<g id="content">
	<g>
		<path fill="#2C2C2B" d="M1.203,23.006h9.619c-0.116,1.922-1.492,3.007-1.787,3.217H6.027c-1.163,0-2.11,0.946-2.11,2.11v0.714
			c0,0.203,0.164,0.368,0.368,0.368h20.822c0.203,0,0.368-0.165,0.368-0.368v-0.715c0-1.164-0.946-2.11-2.11-2.11h-3.009
			c-0.294-0.21-1.671-1.295-1.787-3.217h9.619c0.664,0,1.204-0.54,1.204-1.204V1.547C29.391,0.694,28.697,0,27.844,0H1.546
			C0.694,0,0,0.694,0,1.547v20.255C0,22.466,0.54,23.006,1.203,23.006z M23.364,26.958c0.758,0,1.374,0.617,1.374,1.375v0.347H4.652
			v-0.347c0-0.758,0.617-1.375,1.374-1.375L23.364,26.958L23.364,26.958z M19.25,26.223h-9.109c0.599-0.627,1.339-1.703,1.417-3.217
			h6.275C17.911,24.52,18.65,25.596,19.25,26.223z M0.735,1.547c0-0.447,0.364-0.811,0.811-0.811h26.297
			c0.447,0,0.811,0.364,0.811,0.811v16.624H0.735V1.547z M0.735,18.906h27.92v2.896c0,0.258-0.21,0.468-0.468,0.468H1.203
			c-0.258,0-0.468-0.21-0.468-0.468V18.906z"/>
		<g>
			<path fill="#2C2C2B" d="M34.495,6.398v16.62c0,1.086,0.884,1.97,1.97,1.97H61.94c1.086,0,1.97-0.884,1.97-1.97V6.398
				c0-1.086-0.884-1.97-1.97-1.97H36.465C35.378,4.428,34.495,5.311,34.495,6.398z M61.94,5.163c0.681,0,1.234,0.554,1.234,1.234
				v16.62c0,0.681-0.554,1.234-1.234,1.234H60.57V5.163H61.94z M59.834,5.163v19.089H40.523V5.163H59.834z M39.787,5.163v19.089
				h-3.323c-0.681,0-1.234-0.554-1.234-1.234V6.398c0-0.681,0.554-1.234,1.234-1.234H39.787z"/>
			<path fill="#2C2C2B" d="M35.932,14.708c0,0.834,0.679,1.513,1.514,1.514c0.835,0,1.514-0.679,1.514-1.514
				c0-0.834-0.679-1.513-1.513-1.514l0,0C36.611,13.194,35.932,13.873,35.932,14.708z M38.224,14.708
				c0,0.429-0.349,0.778-0.778,0.778c-0.429,0-0.778-0.349-0.778-0.778s0.349-0.778,0.778-0.778
				C37.874,13.93,38.224,14.279,38.224,14.708z"/>
		</g>
		<g>
			<path fill="#2C2C2B" d="M82.798,29.415c1.086,0,1.97-0.884,1.97-1.97V1.97c0-1.086-0.884-1.97-1.97-1.97H70.59
				c-1.086,0-1.97,0.884-1.97,1.97v25.476c0,1.086,0.884,1.97,1.97,1.97L82.798,29.415L82.798,29.415z M69.356,1.97
				c0-0.681,0.554-1.234,1.234-1.234h12.208c0.681,0,1.234,0.554,1.234,1.234V3.34H69.356V1.97z M69.356,4.076h14.676v19.311H69.356
				V4.076z M69.356,27.445v-3.323h14.676v3.323c0,0.681-0.554,1.234-1.234,1.234H70.59C69.91,28.68,69.356,28.126,69.356,27.445z"/>
			<path fill="#2C2C2B" d="M76.694,27.978c0.835,0,1.514-0.679,1.514-1.514c0-0.835-0.679-1.513-1.514-1.513
				c-0.835,0-1.514,0.679-1.514,1.514C75.181,27.299,75.86,27.978,76.694,27.978z M76.694,25.686c0.429,0,0.778,0.349,0.778,0.778
				c0,0.429-0.349,0.778-0.778,0.778s-0.778-0.349-0.778-0.778C75.916,26.036,76.265,25.686,76.694,25.686z"/>
		</g>
	</g>
</g>
<g id="grid" display="none">
</g>
</svg>
