<?xml version="1.0" encoding="utf-8"?>
<!-- Generator: Adobe Illustrator 17.0.0, SVG Export Plug-In . SVG Version: 6.00 Build 0)  -->
<!DOCTYPE svg PUBLIC "-//W3C//DTD SVG 1.1//EN" "http://www.w3.org/Graphics/SVG/1.1/DTD/svg11.dtd">
<svg version="1.1" xmlns="http://www.w3.org/2000/svg" xmlns:xlink="http://www.w3.org/1999/xlink" x="0px" y="0px" width="50px"
	 height="50px" viewBox="0 0 50 50" enable-background="new 0 0 50 50" xml:space="preserve">
<g id="imgs">
</g>
<g id="content">
	<g>
		<path fill="#2C2C2B" d="M46.827,12.802c-2.012-3.592-4.911-6.664-8.383-8.883l-0.79,1.237C44.466,9.509,48.532,16.927,48.532,25
			c0,12.976-10.556,23.532-23.532,23.532c-8.128,0-15.573-4.109-19.916-10.991l-1.241,0.783c2.212,3.506,5.289,6.434,8.897,8.468
			C16.462,48.891,20.702,50,25,50c6.678,0,12.956-2.6,17.678-7.322C47.4,37.956,50,31.678,50,25
			C50,20.726,48.903,16.508,46.827,12.802L46.827,12.802z M46.827,12.802"/>
		<path fill="#2C2C2B" d="M1.468,25C1.468,12.024,12.024,1.468,25,1.468c4.003,0,7.956,1.023,11.431,2.958l0.714-1.282
			C33.452,1.087,29.252,0,25,0C18.322,0,12.044,2.6,7.322,7.322C2.6,12.044,0,18.322,0,25c0,4.204,1.064,8.361,3.076,12.023
			l1.286-0.707C2.468,32.871,1.468,28.957,1.468,25L1.468,25z M1.468,25"/>
		<path fill="#2C2C2B" d="M33.048,21.575c0-1.484-1.207-2.691-2.691-2.691h-4.613v1.467h4.613c0.675,0,1.223,0.549,1.223,1.223
			c0,0.675-0.549,1.223-1.223,1.223h-9.051v-2.446h2.971v-1.467h-4.438v5.381h10.518C31.841,24.266,33.048,23.059,33.048,21.575
			L33.048,21.575z M33.048,21.575"/>
		<path fill="#2C2C2B" d="M30.357,25.734h-4.613v1.467h4.613c0.675,0,1.223,0.549,1.223,1.223c0,0.675-0.549,1.223-1.223,1.223
			h-9.051v-2.446h2.971v-1.467h-4.438v5.381h10.518c1.484,0,2.691-1.207,2.691-2.691C33.048,26.941,31.841,25.734,30.357,25.734
			L30.357,25.734z M30.357,25.734"/>
		<path fill="#2C2C2B" d="M35.983,28.425c0-1.253-0.409-2.446-1.162-3.425c0.754-0.979,1.162-2.172,1.162-3.425
			c0-3.102-2.524-5.626-5.626-5.626h-0.049v-3.914h-4.403v3.914h-1.419v-3.914h-4.403v3.914h-6.067v4.403h2.887v9.296h-2.887v4.403
			h6.067v3.914h4.403v-3.914h1.419v3.914h4.403v-3.914h0.049C33.459,34.051,35.983,31.527,35.983,28.425L35.983,28.425z
			 M30.357,32.583h-1.516v3.914h-1.468v-3.914h-4.354v3.914h-1.468v-3.914h-6.067v-1.468h2.887V18.885h-2.887v-1.468h6.067v-3.914
			h1.468v3.914h4.354v-3.914h1.468v3.914h1.516c2.293,0,4.159,1.865,4.159,4.158c0,1.095-0.423,2.129-1.19,2.911L32.822,25
			l0.504,0.514c0.767,0.782,1.19,1.816,1.19,2.911C34.516,30.718,32.65,32.583,30.357,32.583L30.357,32.583z M30.357,32.583"/>
		<path fill="#2C2C2B" d="M24.194,2.95c-0.512,0.018-1.028,0.055-1.535,0.108l0.154,1.46c0.474-0.05,0.956-0.084,1.434-0.101
			L24.194,2.95z M24.194,2.95"/>
		<path fill="#2C2C2B" d="M27.269,3.051l-0.149,1.46c0.475,0.049,0.954,0.114,1.424,0.196l0.251-1.446
			C28.291,3.173,27.778,3.103,27.269,3.051L27.269,3.051z M27.269,3.051"/>
		<path fill="#2C2C2B" d="M19.628,3.594c-0.496,0.124-0.994,0.267-1.48,0.426l0.455,1.395c0.453-0.148,0.917-0.282,1.381-0.397
			L19.628,3.594z M19.628,3.594"/>
		<path fill="#2C2C2B" d="M37.309,6.685c-0.425-0.286-0.864-0.56-1.307-0.816l-0.733,1.272c0.414,0.238,0.824,0.494,1.22,0.761
			L37.309,6.685z M37.309,6.685"/>
		<path fill="#2C2C2B" d="M31.783,3.998l-0.451,1.396c0.454,0.146,0.909,0.311,1.353,0.49l0.548-1.362
			C32.757,4.332,32.269,4.155,31.783,3.998L31.783,3.998z M31.783,3.998"/>
		<path fill="#2C2C2B" d="M36.039,44.109l-0.735-1.27c-0.412,0.239-0.839,0.466-1.267,0.676l0.645,1.318
			C35.14,44.608,35.597,44.365,36.039,44.109L36.039,44.109z M36.039,44.109"/>
		<path fill="#2C2C2B" d="M12.671,43.301c0.424,0.286,0.864,0.561,1.306,0.817l0.734-1.271c-0.413-0.239-0.824-0.496-1.22-0.763
			L12.671,43.301z M12.671,43.301"/>
		<path fill="#2C2C2B" d="M25.781,47.051c0.512-0.018,1.028-0.054,1.535-0.106l-0.153-1.46c-0.473,0.05-0.956,0.083-1.434,0.1
			L25.781,47.051z M25.781,47.051"/>
		<path fill="#2C2C2B" d="M22.707,46.947l0.151-1.46c-0.475-0.049-0.954-0.116-1.423-0.198l-0.253,1.446
			C21.685,46.823,22.198,46.894,22.707,46.947L22.707,46.947z M22.707,46.947"/>
		<path fill="#2C2C2B" d="M30.347,46.412c0.496-0.124,0.994-0.266,1.48-0.424l-0.454-1.396c-0.454,0.147-0.919,0.281-1.381,0.396
			L30.347,46.412z M30.347,46.412"/>
		<path fill="#2C2C2B" d="M9.137,40.337c0.355,0.367,0.728,0.727,1.108,1.069l0.982-1.091c-0.355-0.32-0.703-0.655-1.035-0.998
			L9.137,40.337z M9.137,40.337"/>
		<path fill="#2C2C2B" d="M15.943,6.496l-0.646-1.318c-0.459,0.225-0.915,0.469-1.357,0.725l0.737,1.27
			C15.089,6.934,15.515,6.706,15.943,6.496L15.943,6.496z M15.943,6.496"/>
		<path fill="#2C2C2B" d="M18.194,45.995l0.452-1.396c-0.454-0.147-0.909-0.313-1.352-0.491l-0.549,1.361
			C17.22,45.66,17.707,45.837,18.194,45.995L18.194,45.995z M18.194,45.995"/>
		<path fill="#2C2C2B" d="M11.393,7.63c-0.402,0.315-0.798,0.649-1.177,0.991l0.984,1.089c0.354-0.32,0.724-0.631,1.1-0.926
			L11.393,7.63z M11.393,7.63"/>
		<path fill="#2C2C2B" d="M45.142,20.672c0.1,0.466,0.184,0.942,0.251,1.415l1.453-0.206c-0.072-0.507-0.162-1.017-0.269-1.516
			L45.142,20.672z M45.142,20.672"/>
		<path fill="#2C2C2B" d="M44.486,35.36c0.241-0.452,0.468-0.918,0.677-1.385l-1.341-0.597c-0.195,0.436-0.407,0.871-0.631,1.292
			L44.486,35.36z M44.486,35.36"/>
		<path fill="#2C2C2B" d="M43.805,16.584c0.195,0.435,0.377,0.882,0.541,1.329l1.378-0.505c-0.175-0.479-0.37-0.959-0.579-1.425
			L43.805,16.584z M43.805,16.584"/>
		<path fill="#2C2C2B" d="M44.805,30.677l1.411,0.404c0.14-0.492,0.265-0.995,0.371-1.495l-1.436-0.304
			C45.053,29.749,44.936,30.218,44.805,30.677L44.805,30.677z M44.805,30.677"/>
		<path fill="#2C2C2B" d="M38.588,42.386c0.402-0.315,0.799-0.648,1.178-0.99l-0.983-1.09c-0.354,0.319-0.724,0.631-1.101,0.925
			L38.588,42.386z M38.588,42.386"/>
		<path fill="#2C2C2B" d="M47.065,25.002v-0.053l-1.468,0.005V25c0,0.478-0.016,0.962-0.049,1.437l1.464,0.101
			C47.047,26.029,47.065,25.512,47.065,25.002L47.065,25.002z M47.065,25.002"/>
		<path fill="#2C2C2B" d="M41.643,12.864c0.282,0.385,0.553,0.785,0.807,1.189l1.242-0.782c-0.272-0.432-0.563-0.861-0.864-1.273
			L41.643,12.864z M41.643,12.864"/>
		<path fill="#2C2C2B" d="M40.78,38.238l1.124,0.944c0.329-0.392,0.648-0.8,0.949-1.213l-1.187-0.864
			C41.385,37.492,41.087,37.873,40.78,38.238L40.78,38.238z M40.78,38.238"/>
		<path fill="#2C2C2B" d="M40.846,9.646c-0.356-0.367-0.729-0.726-1.109-1.068l-0.98,1.092c0.355,0.319,0.703,0.655,1.036,0.997
			L40.846,9.646z M40.846,9.646"/>
		<path fill="#2C2C2B" d="M4.853,29.305c-0.099-0.466-0.183-0.942-0.249-1.415l-1.454,0.204c0.071,0.507,0.161,1.017,0.267,1.516
			L4.853,29.305z M4.853,29.305"/>
		<path fill="#2C2C2B" d="M6.186,33.395c-0.195-0.435-0.376-0.883-0.539-1.33l-1.379,0.503c0.175,0.479,0.37,0.959,0.578,1.426
			L6.186,33.395z M6.186,33.395"/>
		<path fill="#2C2C2B" d="M5.189,19.346l-1.412-0.402c-0.14,0.492-0.264,0.995-0.369,1.495l1.436,0.302
			C4.942,20.274,5.058,19.804,5.189,19.346L5.189,19.346z M5.189,19.346"/>
		<path fill="#2C2C2B" d="M2.935,25.004v0.02h1.468V25c0-0.471,0.016-0.946,0.048-1.414l-1.464-0.099
			C2.953,23.987,2.935,24.496,2.935,25.004L2.935,25.004z M2.935,25.004"/>
		<path fill="#2C2C2B" d="M8.08,10.837c-0.328,0.392-0.647,0.801-0.948,1.214l1.188,0.862c0.28-0.386,0.578-0.767,0.885-1.133
			L8.08,10.837z M8.08,10.837"/>
		<path fill="#2C2C2B" d="M8.343,37.118c-0.281-0.386-0.552-0.786-0.805-1.19l-1.244,0.78c0.271,0.433,0.562,0.861,0.863,1.275
			L8.343,37.118z M8.343,37.118"/>
		<path fill="#2C2C2B" d="M5.502,14.662c-0.24,0.452-0.467,0.919-0.675,1.386l1.341,0.596c0.194-0.436,0.406-0.871,0.63-1.293
			L5.502,14.662z M5.502,14.662"/>
		<rect x="8.659" y="23.973" fill="#2C2C2B" width="3.914" height="1.467"/>
		<rect x="38.405" y="23.973" fill="#2C2C2B" width="3.914" height="1.467"/>
	</g>
</g>
<g id="grid" display="none">
</g>
</svg>
