<?xml version="1.0" encoding="utf-8"?>
<!-- Generator: Adobe Illustrator 17.0.0, SVG Export Plug-In . SVG Version: 6.00 Build 0)  -->
<!DOCTYPE svg PUBLIC "-//W3C//DTD SVG 1.1//EN" "http://www.w3.org/Graphics/SVG/1.1/DTD/svg11.dtd">
<svg version="1.1" xmlns="http://www.w3.org/2000/svg" xmlns:xlink="http://www.w3.org/1999/xlink" x="0px" y="0px"
	 width="49.517px" height="49.517px" viewBox="0 0 49.517 49.517" enable-background="new 0 0 49.517 49.517" xml:space="preserve">
<g id="imgs">
</g>
<g id="content">
	<g>
		<path fill="#292928" d="M26.347,23.276H23.17c-1.81,0-3.282-1.472-3.282-3.282c0-1.81,1.472-3.282,3.282-3.282h6.354
			c0.819,0,1.483-0.664,1.483-1.483c0-0.819-0.664-1.483-1.483-1.483h-3.282v-3.282c0-0.819-0.664-1.483-1.483-1.483
			s-1.483,0.664-1.483,1.483v3.282H23.17c-3.445,0-6.248,2.803-6.248,6.248s2.803,6.248,6.248,6.248h3.177
			c1.81,0,3.282,1.472,3.282,3.282s-1.472,3.282-3.282,3.282h-6.354c-0.819,0-1.483,0.664-1.483,1.483s0.664,1.483,1.483,1.483
			h3.282v3.282c0,0.819,0.664,1.483,1.483,1.483s1.483-0.664,1.483-1.483v-3.282h0.105c3.445,0,6.248-2.803,6.248-6.248
			S29.792,23.276,26.347,23.276"/>
	</g>
	<circle fill="none" stroke="#292928" stroke-width="1.517" stroke-miterlimit="10" cx="24.759" cy="24.759" r="24"/>
</g>
<g id="grid" display="none">
</g>
</svg>
