<?xml version="1.0" encoding="utf-8"?>
<!-- Generator: Adobe Illustrator 17.0.0, SVG Export Plug-In . SVG Version: 6.00 Build 0)  -->
<!DOCTYPE svg PUBLIC "-//W3C//DTD SVG 1.1//EN" "http://www.w3.org/Graphics/SVG/1.1/DTD/svg11.dtd">
<svg version="1.1" xmlns="http://www.w3.org/2000/svg" xmlns:xlink="http://www.w3.org/1999/xlink" x="0px" y="0px"
	 width="61.111px" height="50px" viewBox="0 0 61.111 50" enable-background="new 0 0 61.111 50" xml:space="preserve">
<g id="imgs">
</g>
<g id="content">
	<g>
		<path fill="#FFFFFF" d="M60.493,47.456l-4.167-2.778c-0.64-0.425-1.501-0.254-1.926,0.385c-0.425,0.639-0.253,1.5,0.385,1.926
			l0.35,0.233H2.778V5.976l0.233,0.35c0.425,0.636,1.286,0.808,1.926,0.385c0.638-0.426,0.81-1.287,0.385-1.926L2.544,0.619
			C2.205,0.11,1.571-0.118,0.987,0.06C0.401,0.237,0,0.777,0,1.389v47.222C0,49.379,0.622,50,1.389,50h58.333
			c0.612,0,1.152-0.4,1.329-0.986C61.229,48.428,61.002,47.795,60.493,47.456z"/>
		<path fill="#FFFFFF" d="M59.722,18.056h-1.389v-6.25c0-0.384-0.311-0.694-0.694-0.694s-0.694,0.311-0.694,0.694v6.25h-1.389
			c-0.464,0-0.856,0.243-1.108,0.593l-3.059-3.496V5.556c0-0.767-0.622-1.389-1.389-1.389h-1.389V0.695
			C48.611,0.311,48.3,0,47.917,0s-0.694,0.311-0.694,0.694v3.472h-1.389c-0.767,0-1.389,0.622-1.389,1.389v7.453l-2.778,2.317
			v-1.437c0-0.767-0.622-1.389-1.389-1.389h-1.389V9.028c0-0.384-0.311-0.694-0.694-0.694S37.5,8.644,37.5,9.028V12.5h-1.389
			c-0.767,0-1.389,0.622-1.389,1.389v7.758l-2.778,2.778v-2.203c0-0.767-0.622-1.389-1.389-1.389h-1.389v-3.472
			c0-0.384-0.311-0.694-0.694-0.694s-0.694,0.311-0.694,0.694v3.472h-1.389c-0.767,0-1.389,0.622-1.389,1.389v4.643l-2.778-1.984
			v-5.436c0-0.767-0.622-1.389-1.389-1.389h-1.389V9.028c0-0.384-0.311-0.694-0.694-0.694s-0.694,0.311-0.694,0.694v9.028h-1.389
			c-0.767,0-1.389,0.622-1.389,1.389v4.981L12.403,27.3c-0.196-0.529-0.695-0.911-1.292-0.911H9.722v-3.472
			c0-0.384-0.311-0.694-0.694-0.694c-0.384,0-0.694,0.311-0.694,0.694v3.472H6.944c-0.767,0-1.389,0.622-1.389,1.389v11.111
			c0,0.767,0.622,1.389,1.389,1.389h1.389v3.472c0,0.384,0.311,0.694,0.694,0.694c0.384,0,0.694-0.311,0.694-0.694v-3.472h1.389
			c0.767,0,1.389-0.622,1.389-1.389V31.13l2.874-2.874c0.196,0.529,0.695,0.911,1.292,0.911h1.389v9.028
			c0,0.384,0.311,0.694,0.694,0.694s0.694-0.311,0.694-0.694v-9.028h1.389c0.607,0,1.109-0.395,1.298-0.938L25,30.278v8.611
			c0,0.767,0.622,1.389,1.389,1.389h1.389v3.472c0,0.384,0.311,0.694,0.694,0.694s0.694-0.311,0.694-0.694v-3.472h1.389
			c0.767,0,1.389-0.622,1.389-1.389V28.35l3.525-3.527C35.664,24.926,35.875,25,36.111,25H37.5v3.472
			c0,0.384,0.311,0.694,0.694,0.694s0.694-0.311,0.694-0.694V25h1.389c0.767,0,1.389-0.622,1.389-1.389v-4.673l2.778-2.315v2.821
			c0,0.767,0.622,1.389,1.389,1.389h1.389v6.25c0,0.384,0.311,0.694,0.694,0.694s0.694-0.311,0.694-0.694v-6.25H50
			c0.767,0,1.389-0.622,1.389-1.389v-0.073l2.778,3.174v5.232c0,0.767,0.622,1.389,1.389,1.389h1.389v6.25
			c0,0.384,0.311,0.694,0.694,0.694s0.694-0.311,0.694-0.694v-6.25h1.389c0.767,0,1.389-0.622,1.389-1.389v-8.333
			C61.111,18.677,60.489,18.056,59.722,18.056z M11.111,38.889H6.944V27.778h4.167V38.889z M20.833,27.778h-4.167v-8.333h4.167
			V27.778z M30.555,38.889h-4.167V22.222h4.167V38.889z M40.278,23.611h-4.167v-9.722h4.167V23.611z M50,19.444h-4.167V5.556H50
			V19.444z M59.722,27.778h-4.167v-8.333h4.167V27.778z"/>
	</g>
</g>
<g id="grid" display="none">
</g>
</svg>
