<?xml version="1.0" encoding="utf-8"?>
<!-- Generator: Adobe Illustrator 17.0.0, SVG Export Plug-In . SVG Version: 6.00 Build 0)  -->
<!DOCTYPE svg PUBLIC "-//W3C//DTD SVG 1.1//EN" "http://www.w3.org/Graphics/SVG/1.1/DTD/svg11.dtd">
<svg version="1.1" xmlns="http://www.w3.org/2000/svg" xmlns:xlink="http://www.w3.org/1999/xlink" x="0px" y="0px" width="37.88px"
	 height="50px" viewBox="0 0 37.88 50" enable-background="new 0 0 37.88 50" xml:space="preserve">
<g id="imgs">
</g>
<g id="content">
	<g>
		<g>
			<path fill="#292928" d="M30.349,7.946c-0.222,0-0.443-0.097-0.591-0.288l-4.645-5.836l-5.836,4.645
				c-0.326,0.258-0.799,0.206-1.066-0.127c-0.259-0.326-0.206-0.799,0.127-1.057l6.427-5.119c0.326-0.259,0.807-0.208,1.066,0.125
				l5.111,6.427c0.259,0.326,0.206,0.799-0.119,1.066C30.683,7.895,30.52,7.946,30.349,7.946z"/>
			<path fill="#292928" d="M0.754,25.995C0.341,25.995,0,25.654,0,25.241c0-0.422,0.341-0.763,0.754-0.763
				c13.087,0,23.724-10.637,23.724-23.715c0-0.422,0.339-0.761,0.761-0.761c0.415,0,0.756,0.339,0.756,0.761
				C25.994,14.678,14.676,25.995,0.754,25.995z"/>
			<path fill="#292928" d="M0.754,50C0.341,50,0,49.659,0,49.239V37.587c0-0.42,0.341-0.761,0.754-0.761
				c0.422,0,0.763,0.341,0.763,0.761v11.652C1.517,49.659,1.176,50,0.754,50z"/>
		</g>
		<path fill="#292928" d="M12.879,50c-0.415,0-0.756-0.341-0.756-0.761V30.233c0-0.42,0.341-0.761,0.756-0.761
			c0.42,0,0.761,0.341,0.761,0.761v19.005C13.64,49.659,13.299,50,12.879,50z"/>
		<path fill="#292928" d="M25.002,50c-0.422,0-0.761-0.341-0.761-0.761V24.952c0-0.42,0.339-0.761,0.761-0.761
			c0.415,0,0.756,0.341,0.756,0.761v24.287C25.757,49.659,25.416,50,25.002,50z"/>
		<path fill="#292928" d="M37.119,50c-0.415,0-0.756-0.341-0.756-0.761V17.178c0-0.422,0.341-0.756,0.756-0.756
			c0.42,0,0.761,0.333,0.761,0.756v32.061C37.88,49.659,37.539,50,37.119,50z"/>
	</g>
</g>
<g id="grid" display="none">
</g>
</svg>
