<?xml version="1.0" encoding="utf-8"?>
<!-- Generator: Adobe Illustrator 17.0.0, SVG Export Plug-In . SVG Version: 6.00 Build 0)  -->
<!DOCTYPE svg PUBLIC "-//W3C//DTD SVG 1.1//EN" "http://www.w3.org/Graphics/SVG/1.1/DTD/svg11.dtd">
<svg version="1.1" xmlns="http://www.w3.org/2000/svg" xmlns:xlink="http://www.w3.org/1999/xlink" x="0px" y="0px"
	 width="64.016px" height="48px" viewBox="0 0 64.016 48" enable-background="new 0 0 64.016 48" xml:space="preserve">
<g id="imgs">
</g>
<g id="content">
	<g>
		<g>
			<path fill="#2C2C2B" d="M61.866,45.715c-0.221,0.26-0.543,0.41-0.884,0.41H44.966c-0.341,0-0.664-0.149-0.884-0.41
				c-0.224-0.264-0.316-0.598-0.259-0.94l1.398-8.386c0.094-0.561,0.575-0.968,1.144-0.968h13.22c0.569,0,1.05,0.407,1.143,0.968
				l1.398,8.386C62.181,45.117,62.09,45.451,61.866,45.715z M42.491,41.358l-0.123-0.739c-0.085-0.511-0.569-0.857-1.08-0.771
				c-0.511,0.086-0.856,0.569-0.771,1.08l0.641,3.848c0.057,0.342-0.035,0.675-0.259,0.94c-0.22,0.26-0.542,0.41-0.884,0.41H24
				c-0.342,0-0.664-0.149-0.884-0.41c-0.224-0.264-0.316-0.598-0.258-0.94l1.397-8.386c0.094-0.561,0.575-0.969,1.143-0.969h13.221
				c0.569,0,1.049,0.407,1.143,0.969l0.057,0.346c0.085,0.511,0.568,0.855,1.079,0.771c0.511-0.086,0.856-0.569,0.771-1.08
				l-0.057-0.346c-0.038-0.231-0.105-0.451-0.191-0.66h2.14c-0.086,0.208-0.152,0.429-0.19,0.66L42.491,41.358z M21.526,41.358
				l-0.88-5.278c-0.038-0.231-0.105-0.451-0.191-0.66h2.141c-0.086,0.208-0.153,0.429-0.191,0.66L21.526,41.358z M19.935,45.715
				c-0.221,0.26-0.543,0.41-0.884,0.41H3.035c-0.342,0-0.664-0.149-0.884-0.41c-0.224-0.264-0.316-0.598-0.259-0.94l1.398-8.386
				c0.093-0.561,0.574-0.968,1.143-0.968h13.22c0.569,0,1.05,0.407,1.144,0.968l1.398,8.386
				C20.25,45.117,20.158,45.451,19.935,45.715z M33.078,22.841c-0.086,0.208-0.152,0.429-0.191,0.66l-0.879,5.277l-0.879-5.277
				c-0.039-0.232-0.105-0.452-0.191-0.66H33.078z M24,20.966c-0.342,0-0.664-0.15-0.884-0.41c-0.224-0.264-0.316-0.597-0.258-0.94
				l1.397-8.386c0.094-0.561,0.575-0.969,1.143-0.969h13.221c0.569,0,1.049,0.408,1.143,0.969l1.397,8.386
				c0.057,0.342-0.034,0.675-0.258,0.94c-0.221,0.26-0.543,0.41-0.884,0.41H24z M50.244,23.81l1.398,8.386
				c0.056,0.336-0.038,0.679-0.258,0.94c-0.224,0.264-0.538,0.41-0.884,0.41H34.483c-0.347,0-0.66-0.145-0.884-0.41
				c-0.221-0.26-0.315-0.603-0.259-0.94l1.398-8.387c0.093-0.56,0.574-0.968,1.143-0.968h13.22
				C49.669,22.841,50.151,23.249,50.244,23.81z M63.974,44.467l-1.398-8.387c-0.245-1.469-1.504-2.535-2.993-2.535h-6.281
				c0.214-0.518,0.284-1.09,0.189-1.658l-1.398-8.386c-0.245-1.47-1.504-2.535-2.993-2.535H42.82
				c0.214-0.518,0.284-1.091,0.189-1.658l-1.398-8.386c-0.245-1.469-1.503-2.535-2.993-2.535H25.398
				c-1.49,0-2.748,1.066-2.993,2.535l-1.398,8.386c-0.095,0.567-0.026,1.14,0.189,1.658h-6.281c-1.489,0-2.748,1.066-2.993,2.535
				l-0.057,0.344c-0.086,0.511,0.26,0.994,0.77,1.08c0.511,0.085,0.994-0.26,1.079-0.771l0.058-0.345
				c0.093-0.56,0.575-0.968,1.143-0.968h13.22c0.569,0,1.05,0.407,1.143,0.968l1.398,8.387c0.056,0.336-0.038,0.679-0.259,0.94
				c-0.224,0.264-0.537,0.41-0.884,0.41H13.517c-0.346,0-0.66-0.145-0.884-0.41c-0.221-0.261-0.315-0.603-0.258-0.94l0.641-3.849
				c0.086-0.511-0.26-0.994-0.771-1.08c-0.511-0.085-0.994,0.26-1.079,0.771l-0.642,3.849c-0.094,0.567-0.025,1.139,0.189,1.658
				H4.432c-1.489,0-2.748,1.066-2.993,2.535l-1.398,8.387c-0.147,0.881,0.1,1.778,0.678,2.46S2.141,48,3.035,48H19.05
				c0.894,0,1.738-0.391,2.316-1.073c0.056-0.067,0.109-0.137,0.159-0.207c0.05,0.07,0.103,0.14,0.16,0.207
				C22.263,47.609,23.107,48,24,48h16.016c0.894,0,1.738-0.391,2.315-1.073c0.057-0.067,0.109-0.137,0.16-0.207
				c0.05,0.07,0.103,0.14,0.159,0.207C43.228,47.609,44.072,48,44.966,48h16.016c0.894,0,1.737-0.391,2.315-1.073
				C63.875,46.245,64.122,45.348,63.974,44.467z"/>
		</g>
		<path fill="#2C2C2B" d="M4.753,29.131h3.145c0.518,0,0.938-0.42,0.938-0.938s-0.42-0.938-0.938-0.938H4.753
			c-0.518,0-0.938,0.42-0.938,0.938S4.235,29.131,4.753,29.131z"/>
		<path fill="#2C2C2B" d="M55.181,28.193c0,0.518,0.42,0.938,0.938,0.938h3.145c0.518,0,0.938-0.42,0.938-0.938
			s-0.42-0.938-0.938-0.938h-3.145C55.601,27.256,55.181,27.676,55.181,28.193z"/>
		<path fill="#2C2C2B" d="M32.008,5.02c0.518,0,0.938-0.419,0.938-0.938V0.938C32.946,0.42,32.526,0,32.008,0
			s-0.938,0.42-0.938,0.938v3.145C31.071,4.601,31.49,5.02,32.008,5.02z"/>
		<path fill="#2C2C2B" d="M14.296,11.808c0.183,0.184,0.423,0.274,0.663,0.274c0.24,0,0.48-0.091,0.663-0.274
			c0.366-0.366,0.366-0.96,0-1.326l-2.224-2.224c-0.366-0.366-0.96-0.366-1.326,0c-0.367,0.367-0.367,0.961,0,1.327L14.296,11.808z"
			/>
		<path fill="#2C2C2B" d="M49.057,12.082c0.24,0,0.48-0.091,0.663-0.274l2.224-2.224c0.367-0.366,0.367-0.96,0-1.327
			c-0.366-0.366-0.96-0.366-1.326,0l-2.224,2.224c-0.366,0.366-0.366,0.96,0,1.326C48.577,11.991,48.817,12.082,49.057,12.082z"/>
		<path fill="#2C2C2B" d="M19.14,7.782c0.174,0.301,0.489,0.469,0.813,0.469c0.16,0,0.321-0.041,0.468-0.126
			c0.449-0.259,0.602-0.833,0.344-1.281l-0.524-0.908c-0.259-0.448-0.833-0.602-1.281-0.344c-0.448,0.259-0.602,0.833-0.343,1.281
			L19.14,7.782z"/>
		<path fill="#2C2C2B" d="M52.076,16.607c0.174,0.301,0.489,0.469,0.813,0.469c0.158,0,0.32-0.041,0.468-0.125l0.908-0.524
			c0.448-0.259,0.602-0.833,0.344-1.281c-0.259-0.449-0.833-0.602-1.281-0.344l-0.908,0.524
			C51.971,15.585,51.817,16.159,52.076,16.607z"/>
		<path fill="#2C2C2B" d="M38.006,5.81c0.081,0.022,0.163,0.032,0.243,0.032c0.414,0,0.793-0.276,0.905-0.695l0.271-1.012
			c0.135-0.501-0.162-1.014-0.663-1.149c-0.5-0.134-1.014,0.162-1.148,0.663l-0.272,1.012C37.209,5.162,37.506,5.676,38.006,5.81z"
			/>
		<path fill="#2C2C2B" d="M7.464,22.587l1.012,0.272c0.082,0.022,0.163,0.032,0.244,0.032c0.414,0,0.793-0.276,0.905-0.695
			c0.134-0.5-0.163-1.014-0.664-1.149l-1.012-0.271c-0.5-0.134-1.014,0.163-1.149,0.663C6.667,21.939,6.964,22.454,7.464,22.587z"/>
		<path fill="#2C2C2B" d="M43.595,8.125c0.147,0.085,0.308,0.126,0.468,0.126c0.324,0,0.639-0.168,0.813-0.469l0.524-0.908
			c0.259-0.448,0.106-1.022-0.343-1.281c-0.448-0.259-1.022-0.105-1.281,0.344l-0.524,0.908C42.992,7.292,43.146,7.866,43.595,8.125
			z"/>
		<path fill="#2C2C2B" d="M9.751,16.426l0.908,0.524c0.148,0.085,0.309,0.125,0.468,0.125c0.324,0,0.639-0.168,0.813-0.469
			c0.259-0.448,0.105-1.022-0.343-1.281l-0.908-0.524c-0.448-0.259-1.022-0.105-1.281,0.344C9.149,15.593,9.303,16.167,9.751,16.426
			z"/>
		<path fill="#2C2C2B" d="M24.862,5.147c0.112,0.419,0.491,0.695,0.905,0.695c0.081,0,0.162-0.011,0.243-0.032
			c0.5-0.134,0.797-0.648,0.663-1.149l-0.271-1.012c-0.134-0.5-0.648-0.797-1.149-0.663c-0.5,0.134-0.797,0.648-0.663,1.149
			L24.862,5.147z"/>
		<path fill="#2C2C2B" d="M54.391,22.196c0.112,0.419,0.492,0.695,0.906,0.695c0.08,0,0.162-0.011,0.243-0.032l1.012-0.272
			c0.5-0.134,0.797-0.648,0.663-1.148c-0.134-0.501-0.648-0.798-1.149-0.664l-1.012,0.272
			C54.554,21.181,54.257,21.696,54.391,22.196z"/>
	</g>
</g>
<g id="grid" display="none">
</g>
</svg>
